<?xml version="1.0" encoding="utf-8"?>
<!-- Generator: Adobe Illustrator 25.2.1, SVG Export Plug-In . SVG Version: 6.00 Build 0)  -->
<svg version="1.1" id="Camada_1" xmlns="http://www.w3.org/2000/svg" xmlns:xlink="http://www.w3.org/1999/xlink" x="0px" y="0px"
	 viewBox="0 0 100 100" style="enable-background:new 0 0 100 100;" xml:space="preserve">
<style type="text/css">
	.st0{fill:#FFFFFF;}
	.st1{display:none;}
	.st2{display:inline;}
	.st3{clip-path:url(#SVGID_2_);}
	.st4{clip-path:url(#SVGID_4_);}
	.st5{clip-path:url(#SVGID_6_);}
	.st6{fill:none;}
	.st7{clip-path:url(#SVGID_8_);}
	.st8{clip-path:url(#SVGID_10_);}
	.st9{clip-path:url(#SVGID_12_);}
	.st10{clip-path:url(#SVGID_14_);}
	.st11{clip-path:url(#SVGID_16_);fill:none;stroke:#000000;stroke-width:3;stroke-miterlimit:10;}
	.st12{clip-path:url(#SVGID_18_);fill:none;stroke:#000000;stroke-width:3;stroke-miterlimit:10;}
	.st13{clip-path:url(#SVGID_20_);}
	.st14{clip-path:url(#SVGID_22_);}
	.st15{clip-path:url(#SVGID_24_);}
	.st16{clip-path:url(#SVGID_26_);fill:none;}
	.st17{clip-path:url(#SVGID_28_);fill:none;}
	.st18{clip-path:url(#SVGID_30_);}
	.st19{clip-path:url(#SVGID_32_);}
	.st20{clip-path:url(#SVGID_34_);}
	.st21{clip-path:url(#SVGID_36_);}
	.st22{clip-path:url(#SVGID_38_);fill:#FFFFFF;}
	.st23{clip-path:url(#SVGID_40_);}
	.st24{clip-path:url(#SVGID_42_);}
	.st25{clip-path:url(#SVGID_44_);}
	.st26{clip-path:url(#SVGID_46_);}
	.st27{clip-path:url(#SVGID_48_);}
	.st28{clip-path:url(#SVGID_50_);}
	.st29{clip-path:url(#SVGID_52_);}
	.st30{clip-path:url(#SVGID_54_);}
</style>
<circle class="st0" cx="50" cy="50" r="50"/>
<g class="st1">
	<g class="st2">
		<g>
			<g>
				<defs>
					<rect id="SVGID_1_" x="-132.5" y="-9.2" width="100" height="100"/>
				</defs>
				<clipPath id="SVGID_2_">
					<use xlink:href="#SVGID_1_"  style="overflow:visible;"/>
				</clipPath>
				<path class="st3" d="M-62,66.6l-14.1-5.8c-0.6-0.3-0.6-1.1,0-1.4l10.3-4.2c0.8-0.3,1.5-0.5,2.3-0.5c2.4,0,4.7,1.5,5.6,3.9
					c1.1,3.1-0.6,6.5-3.6,7.7L-62,66.6L-62,66.6z M-82.5-2.8c-5.1,4.2-24,20.9-24,34c0,8,2.5,13.8,7.6,17.3
					c-0.8-2.1-1.3-4.6-1.3-7.3c0-10.8,15.7-24.1,16.4-24.6l1.3-1.1l1.3,1.1c0.7,0.6,16.4,13.8,16.4,24.6c0,2.6-0.4,4.9-1.2,6.9
					c5-3.6,7.5-9.2,7.5-16.8c0-6.1-4.3-14.1-12.5-23C-75.6,3.1-80.3-1-82.5-2.8 M-82.5-5.4c0,0,26,20.4,26,36.6
					c0,9.8-4,16.3-10.6,19.9c-0.2,0.1-0.4,0.2-0.6,0.2c-0.9,0-1.7-1-1.1-1.9c1.3-2.1,2.1-4.8,2.1-8.2c0-10-15.7-23.1-15.7-23.1
					s-15.8,13-15.8,23c0,3.5,0.7,6.3,2.1,8.5c0.6,0.9-0.1,2-1,2c-0.2,0-0.4,0-0.6-0.1c-6.9-3.5-10.8-10.1-10.8-20.3
					C-108.5,15-82.5-5.4-82.5-5.4L-82.5-5.4z M-82.3,34.5c-3,2.8-7.8,8.3-7.8,12.1c0,4.9,2.4,7.2,7.6,7.2c5.4,0,8-2.4,8-7.2
					C-74.5,42.8-79.3,37.3-82.3,34.5 M-82.3,31.8c0,0,9.8,8.4,9.8,14.8s-4.1,9.2-10,9.2s-9.6-2.8-9.6-9.2S-82.3,31.8-82.3,31.8
					L-82.3,31.8z M-88.3,77.5l-18.9,7.8c-0.8,0.4-1.5,0.5-2.3,0.5c-2.4,0-4.7-1.5-5.6-4c-1.1-3.1,0.6-6.4,3.6-7.7l8.6-3.6
					c1-0.4,2.1-0.4,3.1,0l11.5,4.7C-87.3,75.7-87.3,77.1-88.3,77.5z M-105.8,78.3c-0.8-2-3.2-3-5.2-2.2s-3,3.2-2.2,5.2
					c0.8,2,3.2,3,5.2,2.2C-105.9,82.6-105,80.3-105.8,78.3z M-48,82.1c-1,2.3-3.2,3.7-5.5,3.7c-0.8,0-1.5-0.1-2.3-0.5l-46.8-19.1
					c-3.1-1.3-4.5-4.8-3.2-7.8c1-2.3,3.2-3.7,5.5-3.7c0.8,0,1.5,0.1,2.3,0.5l46.8,19.1C-48.2,75.5-46.7,79-48,82.1z M-52,76.1
					c-2-0.8-4.4,0.1-5.2,2.2c-0.8,2,0.1,4.4,2.2,5.2c2,0.8,4.4-0.1,5.2-2.2C-49,79.3-49.9,76.9-52,76.1z"/>
			</g>
		</g>
	</g>
</g>
<g class="st1">
	<g class="st2">
		<g>
			<g>
				<defs>
					<rect id="SVGID_3_" x="-132.5" y="-9.2" width="100" height="100"/>
				</defs>
				<clipPath id="SVGID_4_">
					<use xlink:href="#SVGID_3_"  style="overflow:visible;"/>
				</clipPath>
				<path class="st4" d="M-66.5-0.2c1.1,0,2,0.9,2,2v10c0,1.1-0.9,2-2,2h-13h-0.8l-0.6,0.5l-7.6,6.8v-5.3v-2h-2h-6c-1.1,0-2-0.9-2-2
					v-10c0-1.1,0.9-2,2-2H-66.5 M-66.5-2.2h-30c-2.2,0-4,1.8-4,4v10c0,2.2,1.8,4,4,4h6v5.3c0,1.2,1,2,2,2c0.5,0,0.9-0.2,1.3-0.5
					l7.7-6.8h13c2.2,0,4-1.8,4-4v-10C-62.5-0.4-64.3-2.2-66.5-2.2L-66.5-2.2z M-103.7,26.4c4.4,0,8,3.6,8,8s-3.6,8-8,8s-8-3.6-8-8
					S-108.1,26.4-103.7,26.4 M-103.7,24.4c-5.5,0-10,4.5-10,10s4.5,10,10,10s10-4.5,10-10S-98.1,24.4-103.7,24.4L-103.7,24.4z
					 M-103.7,53.8c8.5,0,14.8,8.7,14.8,16.5c0,3.7-1.4,6.6-4.1,8.6c-2.5,1.9-6.2,2.9-10.7,2.9s-8.1-1-10.7-2.9
					c-2.7-2-4.1-4.9-4.1-8.6C-118.5,62.5-112.2,53.8-103.7,53.8 M-103.7,51.8c-9.3,0-16.8,9.2-16.8,18.5s7.5,13.5,16.8,13.5
					s16.8-4.2,16.8-13.5S-94.4,51.8-103.7,51.8L-103.7,51.8z M-62.3,26.4c4.4,0,8,3.6,8,8s-3.6,8-8,8s-8-3.6-8-8
					S-66.8,26.4-62.3,26.4 M-62.3,24.4c-5.5,0-10,4.5-10,10s4.5,10,10,10s10-4.5,10-10S-56.8,24.4-62.3,24.4L-62.3,24.4z
					 M-62.3,53.8c8.5,0,14.8,8.7,14.8,16.5c0,3.7-1.4,6.6-4.1,8.6c-2.6,1.9-6.3,2.9-10.7,2.9s-8.1-1-10.7-2.9
					c-2.7-2-4.1-4.9-4.1-8.6C-77.2,62.5-70.8,53.8-62.3,53.8 M-62.3,51.8c-9.3,0-16.8,9.2-16.8,18.5s7.5,13.5,16.8,13.5
					s16.8-4.2,16.8-13.5S-53,51.8-62.3,51.8L-62.3,51.8z M-91.5,3.8c-1.7,0-3,1.3-3,3s1.3,3,3,3c1.7,0,3-1.3,3-3S-89.8,3.8-91.5,3.8
					z M-81.5,3.8c-1.7,0-3,1.3-3,3s1.3,3,3,3c1.7,0,3-1.3,3-3S-79.8,3.8-81.5,3.8z M-71.5,3.8c-1.7,0-3,1.3-3,3s1.3,3,3,3
					c1.7,0,3-1.3,3-3S-69.8,3.8-71.5,3.8z"/>
			</g>
		</g>
	</g>
</g>
<g class="st1">
	<g class="st2">
		<g>
			<g>
				<defs>
					<rect id="SVGID_5_" x="-132.5" y="-9.2" width="100" height="100"/>
				</defs>
				<clipPath id="SVGID_6_">
					<use xlink:href="#SVGID_5_"  style="overflow:visible;"/>
				</clipPath>
				<path class="st5" d="M-57.5,68.1c-0.2,0-0.4,0-0.6,0.1c-1.7,0.6-3.1,1.7-4.1,3.2c-0.7-0.3-1.5-0.5-2.3-0.8V60.1c0-1.1-0.9-2-2-2
					c-0.2,0-0.4,0-0.6,0.1c-1.7,0.6-3.1,1.7-4.1,3.2c-5.8-2.1-14.3-3.6-17.3-3.6c-4.4,0-8.5,3.2-9,7.2c-1.3-0.2-2.3-0.2-3-0.2
					c-4.7,0-9,3.6-9,8c0,2.2,1.1,4.2,2.7,5.7c1.7,1.4,3.9,2.3,6.3,2.3c2.2,0,7.6-0.8,12.6-2.2c0.5,1.1,1.2,2,2.1,2.8
					c1.7,1.4,3.9,2.3,6.3,2.3c3,0,11.5-1.5,17.3-3.7c1,1.5,2.4,2.6,4.1,3.2c0.2,0.1,0.4,0.1,0.6,0.1c1.1,0,2-0.9,2-2V70.1
					C-55.5,69-56.4,68.1-57.5,68.1z M-57.5,75.7V76v1.7v3.8c-1.1-0.4-2.1-1.1-2.8-2.1c-0.2-0.3-0.4-0.5-0.5-0.8
					c-0.2-0.3-0.3-0.6-0.4-0.9c-0.2-0.7-0.3-1.3-0.3-1.9s0.1-1.2,0.3-1.8c0.1-0.3,0.2-0.6,0.4-0.9c0.1-0.3,0.3-0.6,0.5-0.8
					c0.7-1,1.7-1.7,2.8-2.1V74C-57.5,74-57.5,75.7-57.5,75.7z M-67.5,79.7c-4.8,1.3-10,2.1-12,2.1c-2.8,0-5.3-1.6-6.4-3.7
					c-0.2-0.3-0.3-0.6-0.4-0.9s-0.2-0.6-0.2-1c0-0.1,0-0.2,0-0.3c0-0.8,0.2-1.5,0.5-2.2c0.2-0.4,0.4-0.7,0.7-1
					c0.3-0.3,0.6-0.7,0.9-1c0.1-0.1,0.2-0.2,0.4-0.3c0.3-0.2,0.6-0.4,0.9-0.6c0,0,0.1-0.1,0.2-0.1c0.4-0.2,0.7-0.4,1.1-0.5
					c0.1,0,0.1,0,0.2-0.1c0.5-0.2,1-0.3,1.5-0.3l0,0c0.2,0,0.5,0,0.7,0c0.3,0,0.6,0,1,0c0.3,0,0.6,0,1,0.1h0.1l0,0
					c0.3,0,0.6,0.1,0.9,0.1c0.5,0.1,1.1,0.1,1.7,0.2l0,0c0.7,0.1,1.4,0.2,2.1,0.4c0.7,0.1,1.5,0.3,2.3,0.5c0.7,0.2,1.4,0.3,2.1,0.5
					c0.3,0.1,0.6,0.1,0.8,0.2c0.5,0.1,1,0.3,1.5,0.4c0.4,0.1,0.7,0.2,1.1,0.3c0.7,0.2,1.2,0.4,1.8,0.6c-0.4,0.9-0.5,1.8-0.5,2.7
					s0.1,1.8,0.4,2.5C-64.3,78.8-65.7,79.3-67.5,79.7z M-88.5,76.7c-4.8,1.3-10,2.1-12,2.1c-3.7,0-7-2.8-7-6s3.3-6,7-6
					c0.7,0,1.8,0.1,3.1,0.3c0.3,1.7,1.3,3.2,2.6,4.4c1.7,1.4,3.9,2.3,6.3,2.3c0.1,0,0.2,0,0.3,0c-0.2,0.6-0.3,1.3-0.3,2
					C-88.5,76.1-88.5,76.4-88.5,76.7L-88.5,76.7z M-95.5,65.8c0-0.2,0-0.3,0-0.5c0.3-3,3.4-5.5,7-5.5c2,0,7.2,0.8,12,2.1
					c1.8,0.5,3.2,0.9,4.4,1.4c-0.3,0.7-0.4,1.6-0.4,2.5s0.1,1.8,0.4,2.5c-0.2,0.1-0.5,0.2-0.8,0.3l0,0c-1.3-0.2-2.6-0.4-3.6-0.6
					c-0.3,0-0.7-0.1-1-0.1c-0.4,0-0.7-0.1-1-0.1c-0.4,0-0.7,0-1,0c-0.1,0-0.2,0-0.3,0c-0.6,0-1.2,0.1-1.8,0.2
					c-0.5,0.1-1,0.3-1.4,0.5c-0.1,0-0.2,0.1-0.2,0.1c-0.3,0.2-0.7,0.3-1,0.5c-0.4,0.2-0.7,0.4-1,0.7c-0.7,0.5-1.3,1.2-1.8,1.9
					c-0.5,0-1,0.1-1.3,0.1c-3.1,0-5.8-1.9-6.7-4.4c-0.1-0.3-0.2-0.7-0.2-1.1C-95.5,66.1-95.5,66-95.5,65.8z M-69.3,62.2
					c0.7-1,1.7-1.7,2.8-2.1v3.8v1.7v0.3v1.7V70c-0.9-0.3-1.9-0.5-2.8-0.7l0,0c-0.2-0.3-0.4-0.5-0.5-0.8c-0.2-0.3-0.3-0.6-0.4-0.9
					c-0.2-0.6-0.3-1.2-0.3-1.8s0.1-1.2,0.3-1.8c0.1-0.3,0.2-0.6,0.4-0.9C-69.7,62.8-69.5,62.5-69.3,62.2z M-77.8,73.8
					c0.2,0.3,0.3,0.7,0.3,1c0,0.7-0.4,1.4-1,1.7c-0.3,0.2-0.6,0.3-1,0.3c-0.6,0-1.1-0.2-1.4-0.6c-0.2-0.2-0.4-0.5-0.5-0.9
					c0-0.2-0.1-0.3-0.1-0.5s0-0.4,0.1-0.6c0.3-0.8,1-1.3,1.9-1.4l0,0c0.3,0,0.7,0.1,1,0.2l0,0C-78.2,73.2-78,73.5-77.8,73.8z
					 M-82.2,71L-82.2,71L-82.2,71L-82.2,71z M-90.5,64.8c0-1.1,0.9-2,2-2s2,0.9,2,2c0,1.1-0.9,2-2,2l0,0c-0.3,0-0.6-0.1-0.9-0.2
					C-90.1,66.3-90.5,65.6-90.5,64.8z M-98.5,71.8c0,1.1-0.9,2-2,2s-2-0.9-2-2s0.9-2,2-2S-98.5,70.7-98.5,71.8z M-84.5,39.8h-5v10
					h-10v-10h-5l10-10L-84.5,39.8z M-60.5,41.8l-10,10l-10-10h5v-10h10v10H-60.5z M-60.5,1.8c-1.5,0-2.9,0.3-4.1,1v-4
					c0-0.5-0.5-1-1-1s-1,0.5-1,1v4c-1.2-0.6-2.6-1-4.1-1c-3.3,0-6.2,1.6-7.4,5c-1.3,0.1-2.5,0.4-3.6,0.9v-4c0-0.5-0.5-1-1-1
					s-1,0.5-1,1v4c-1.2-0.6-2.6-1-4.1-1c-0.2,0-0.3,0-0.5,0c-1.2-3.4-4-4.9-7.3-4.9c-1.5,0-2.9,0.3-4.1,1v-4c0-0.5-0.5-1-1-1
					s-1,0.5-1,1v4c-1.2-0.6-2.5-0.9-4-0.9c-4.4,0-7.9,2.7-7.9,8.8s5,13.2,9.4,13.2c1.1,0,2-0.4,2.9-1.2c0.2-0.2,0.5-0.3,0.7-0.3
					c0.2,0,0.5,0.1,0.7,0.3c0.8,0.8,1.8,1.2,2.9,1.2c1.1,0,2.2-0.4,3.3-1.2c1.9,3.4,4.8,6.1,7.4,6.1c1.1,0,2.1-0.4,2.9-1.2
					c0.2-0.2,0.5-0.3,0.7-0.3c0.2,0,0.5,0.1,0.7,0.3c0.8,0.8,1.8,1.2,2.9,1.2c2.6,0,5.4-2.5,7.2-5.7c0.8,0.5,1.7,0.7,2.5,0.7
					c1.1,0,2.1-0.4,2.9-1.2c0.2-0.2,0.5-0.3,0.7-0.3s0.5,0.1,0.7,0.3c0.8,0.8,1.8,1.2,2.9,1.2c4.4,0,9.4-7.1,9.4-13.2
					S-56.1,1.8-60.5,1.8z M-62,21.8c-0.6,0-1-0.2-1.5-0.6c-0.6-0.5-1.3-0.8-2.1-0.8s-1.5,0.3-2.1,0.8c-0.5,0.4-1,0.6-1.5,0.6
					s-1.1-0.2-1.7-0.5c0.8-1.8,1.3-3.8,1.3-5.7c0-5.3-2.7-8.1-6.3-8.7c0.9-2,2.7-3.1,5.3-3.1c1.5,0,2.8,0.4,3.8,1.2l1.2,1l1.2-1
					c1-0.8,2.3-1.2,3.8-1.2c3.8,0,5.9,2.4,5.9,6.8C-54.6,15.9-59,21.8-62,21.8z M-73.4,21.9c-1.5,2.8-3.8,4.9-5.6,4.9
					c-0.6,0-1-0.2-1.5-0.6c-0.6-0.5-1.3-0.8-2.1-0.8c-0.8,0-1.5,0.3-2.1,0.8c-0.5,0.4-1,0.6-1.5,0.6c-1.9,0-4.3-2.3-5.9-5.4
					c-0.2-0.3-0.3-0.6-0.5-1c-0.1-0.3-0.3-0.7-0.4-1c-0.4-1.2-0.7-2.5-0.7-3.8c0-3.6,1.4-5.8,4-6.5c0.3-0.1,0.6-0.2,1-0.2
					c0.3-0.1,0.7-0.1,1-0.1c1.5,0,2.8,0.4,3.8,1.2l1.2,1l1.2-1c0.8-0.6,1.7-1,2.9-1.1c0.3,0,0.6-0.1,1-0.1c0,0,0,0,0.1,0
					c0.3,0,0.7,0,1,0.1c3.2,0.4,4.9,2.8,4.9,6.7c0,1.5-0.3,3-0.9,4.4c-0.1,0.3-0.3,0.6-0.4,1C-73,21.3-73.2,21.6-73.4,21.9z
					 M-96.9,21.9c-0.6,0-1-0.2-1.5-0.6c-0.6-0.5-1.3-0.8-2.1-0.8c-0.8,0-1.5,0.3-2.1,0.8c-0.5,0.4-0.9,0.6-1.5,0.6
					c-3,0-7.4-5.9-7.4-11.2c0-4.4,2.1-6.8,5.9-6.8c1.5,0,2.8,0.4,3.8,1.2l1.2,1l1.2-1c1-0.8,2.3-1.2,3.8-1.2c2.6,0,4.4,1.1,5.3,3.2
					c-3.1,0.9-5.4,3.6-5.4,8.5c0,1.7,0.4,3.6,1.1,5.3C-95.3,21.5-96.1,21.9-96.9,21.9z"/>
			</g>
		</g>
	</g>
</g>
<rect x="-167.7" y="-34.7" transform="matrix(2.277688e-03 -1 1 2.277688e-03 -132.7571 -98.9322)" class="st6" width="103.5" height="103.5"/>
<path d="M86.3,34.6v-8.3c0-8.7-14-15.6-32.1-15.6s-32.1,6.8-32.1,15.5v8.2c-6.4,2.7-10.4,6.8-10.4,11.4v8.3c0,4.7,3.9,8.7,10.3,11.5
	v8.2c0,8.7,14,15.6,32.1,15.6s32.1-6.8,32.1-15.5v-8.3c0-4.7-3.9-8.7-10.3-11.5v-8.1C82.4,43.2,86.3,39.2,86.3,34.6z M84.1,73.9
	c0,2.1-1.1,4-3.1,5.9v-5.6c0.1-0.1,0.2-0.2,0.3-0.3c1-0.8,2-1.8,2.8-2.7V73.9z M24.1,71.1c0.7,0.9,1.7,1.9,2.8,2.7
	c0.1,0.1,0.2,0.2,0.3,0.3v5.6c-2-1.8-3.1-3.7-3.1-5.9V71.1z M29.3,81.2v-5.8c0.9,0.5,2,1,3.1,1.6v5.9C31.2,82.4,30.2,81.8,29.3,81.2
	z M34.4,83.8v-6c1,0.4,2.1,0.7,3.1,1v6.1C36.4,84.6,35.4,84.2,34.4,83.8z M39.6,85.5v-6.1c1,0.2,2.1,0.4,3.1,0.6v6.2
	C41.7,86,40.6,85.8,39.6,85.5z M44.8,86.5v-6.2c1,0.1,2.1,0.2,3.1,0.4v6.2C46.8,86.9,45.8,86.8,44.8,86.5z M53.1,87.3
	c-1,0-2.1-0.1-3.1-0.1V81c1,0.1,2.1,0.1,3.1,0.1V87.3z M79,75.5v5.8c-0.9,0.6-2,1.1-3.1,1.8v-5.9C77,76.6,78,76.1,79,75.5z
	 M73.8,77.9v6c-0.9,0.4-2,0.7-3.1,1.1v-6.1C71.7,78.6,72.7,78.3,73.8,77.9z M68.6,79.5v6.1c-1,0.2-2.1,0.5-3.1,0.7v-6.1
	C66.5,80,67.6,79.8,68.6,79.5z M63.4,80.5v6.2c-1,0.1-2.1,0.3-3.1,0.4v-6.2C61.4,80.7,62.4,80.6,63.4,80.5z M58.2,81v6.2
	c-1,0.1-2.1,0.1-3.1,0.1v-6.2C56.2,81.1,57.2,81,58.2,81z M77.6,73.9C72,77,63.5,79,54.1,79s-17.9-2.1-23.5-5.2
	c-3.6-2.1-6-4.6-6.4-7.3c5.4,2,12.1,3.1,19.6,3.2c16.6,0,29.8-5.7,31.8-13.4c5.3,2.5,8.6,5.7,8.6,9.3C84.2,68.7,81.7,71.6,77.6,73.9
	z M68.7,55.8v5.8c-0.9,0.6-2,1.1-3.1,1.8v-5.9C66.7,56.9,67.7,56.4,68.7,55.8z M63.5,58.2v6c-0.9,0.4-2,0.7-3.1,1.1v-6.1
	C61.4,58.9,62.4,58.6,63.5,58.2z M58.3,59.8v6.1c-1,0.2-2.1,0.5-3.1,0.7v-6.1C56.2,60.3,57.3,60.1,58.3,59.8z M53.1,60.8V67
	c-1,0.1-2.1,0.3-3.1,0.4v-6.2C51,61,52.1,60.9,53.1,60.8z M47.9,61.3v6.2c-1,0.1-2.1,0.1-3.1,0.1v-6.2
	C45.9,61.4,46.9,61.3,47.9,61.3z M24.1,61.7v-1.9V58c0.4,0.1,0.8,0.3,1.1,0.4c0.4,0.1,0.7,0.2,1.1,0.4c0.3,0.1,0.5,0.2,0.8,0.2v0.4
	V65c-1-0.3-2.1-0.6-3-1c0,0-0.1,0-0.1-0.1L24.1,61.7z M29.3,65.8v-6.1c1,0.2,2.1,0.4,3.1,0.6v6.2C31.4,66.3,30.3,66.1,29.3,65.8z
	 M34.5,66.8v-6.2c1,0.1,2.1,0.2,3.1,0.4v6.2C36.5,67.2,35.5,67.1,34.5,66.8z M42.7,67.6c-1,0-2.1-0.1-3.1-0.1v-6.2
	c1,0.1,2.1,0.1,3.1,0.1V67.6z M22.1,57.3v5.9c-1.1-0.5-2.2-1.1-3.1-1.8v-5.8C19.9,56.2,20.9,56.8,22.1,57.3z M13.8,51.4
	c0.7,0.9,1.7,1.9,2.8,2.7c0.1,0.1,0.2,0.2,0.3,0.3V60c-2-1.8-3.1-3.7-3.1-5.9L13.8,51.4z M70.3,52.1c-0.3,0.3-0.7,0.5-1,0.8
	c-0.4,0.3-0.8,0.5-1.2,0.8c-0.3,0.2-0.5,0.3-0.8,0.5c-5.6,3.1-14.1,5.1-23.5,5.1c-5,0-9.7-0.6-13.9-1.6c-0.5-0.1-0.9-0.2-1.3-0.3
	s-0.8-0.2-1.2-0.4c-2.6-0.8-4.9-1.8-6.8-2.9c-4-2.3-6.5-5.2-6.5-8.3c0-3.5,3.3-6.8,8.6-9.3C24.8,44.2,38,50,54.5,50
	c7.5,0,14.2-1.1,19.6-3.1C73.4,48.8,72.2,50.6,70.3,52.1z M54.3,12.7c16.3,0,30,6.2,30,13.5c0,3.1-2.5,6-6.5,8.3
	c-2,1.1-4.2,2.1-6.8,2.9c-0.4,0.1-0.8,0.2-1.2,0.4c-0.4,0.1-0.9,0.2-1.3,0.3c-4.1,1-8.9,1.5-13.9,1.5c-9.4,0-17.9-2.1-23.5-5.2
	c-0.3-0.2-0.5-0.3-0.8-0.5c-0.4-0.2-0.8-0.5-1.2-0.8s-0.7-0.5-1-0.8c-2.2-1.9-3.5-3.9-3.5-6.2C24.2,18.8,38,12.7,54.3,12.7z
	 M84.2,34.5c0,2.1-1.1,4-3.1,5.9v-5.6c0.1-0.1,0.2-0.2,0.3-0.3c1-0.8,2-1.8,2.8-2.7V34.5z M73.9,40.3v1.9v2.4c0,0-0.1,0-0.1,0.1
	c-0.9,0.4-2,0.7-3,1v-5.6v-0.4c0.3-0.1,0.5-0.2,0.8-0.2c0.4-0.1,0.7-0.2,1.1-0.4c0.4-0.1,0.8-0.3,1.1-0.4L73.9,40.3z M53.2,41.7v6.2
	c-1,0-2.1-0.1-3.1-0.1v-6.2C51.1,41.6,52.1,41.7,53.2,41.7z M48,41.4v6.2c-1-0.1-2.1-0.2-3.1-0.4V41C45.9,41.2,46.9,41.3,48,41.4z
	 M42.8,40.8v6.1c-1-0.2-2.1-0.4-3.1-0.7v-6.1C40.7,40.4,41.8,40.6,42.8,40.8z M37.6,39.5v6.1c-1.1-0.3-2.2-0.7-3.1-1.1v-6
	C35.6,38.9,36.6,39.2,37.6,39.5z M32.5,37.6v5.9c-1.1-0.5-2.2-1.1-3.1-1.8v-5.8C30.3,36.6,31.3,37.1,32.5,37.6z M68.7,40.1v6.1
	c-1,0.2-2.1,0.5-3.1,0.7v-6.1C66.6,40.6,67.7,40.4,68.7,40.1z M63.5,41.1v6.2c-1,0.1-2.1,0.3-3.1,0.4v-6.2
	C61.4,41.3,62.5,41.2,63.5,41.1z M58.3,41.6v6.2c-1,0.1-2.1,0.1-3.1,0.1v-6.2C56.3,41.7,57.3,41.6,58.3,41.6z M75.9,37.7
	c1.1-0.5,2.2-1,3.1-1.5V42c-0.9,0.6-2,1.1-3.1,1.8V37.7z M24.2,31.7c0.3,0.4,0.7,0.9,1.1,1.3c0.3,0.3,0.6,0.5,0.9,0.8
	c0.2,0.2,0.4,0.4,0.7,0.5c0.1,0.1,0.2,0.2,0.3,0.2l0,0v5.6c-1.5-1.5-2.6-3-3-4.6c-0.1-0.3-0.1-0.7-0.1-1.1c0-0.1,0-0.1,0-0.2v-0.9
	L24.2,31.7z M73.8,54.2c0,0.1,0,0.1,0,0.2c0,0.4-0.1,0.7-0.1,1.1c-0.3,1.7-1.4,3.2-3,4.5v-5.6l0,0c0.1-0.1,0.2-0.2,0.3-0.2
	c0.2-0.2,0.4-0.4,0.7-0.5c0.3-0.3,0.6-0.5,0.9-0.8c0.4-0.4,0.8-0.8,1.1-1.3v1.8L73.8,54.2z"/>
<g class="st1">
	<g class="st2">
		<g>
			<g>
				<defs>
					<rect id="SVGID_7_" x="-132.5" y="-9.2" width="99.7" height="99.7"/>
				</defs>
				<clipPath id="SVGID_8_">
					<use xlink:href="#SVGID_7_"  style="overflow:visible;"/>
				</clipPath>
				<path class="st7" d="M-117.5,12.8c0-0.6,0.4-1,1-1c4.6,0,8.9,1.5,12.4,4.1c-0.5,0.5-1,0.9-1.4,1.4c-3.1-2.2-6.9-3.5-11-3.5
					C-117.1,13.8-117.5,13.4-117.5,12.8z M-116.5,17.8c3.2,0,6.1,1,8.6,2.7c0.4-0.6,0.7-1.1,1.1-1.6c-2.7-2-6.1-3.1-9.7-3.1
					c-0.6,0-1,0.4-1,1S-117.1,17.8-116.5,17.8z M-110.5,26.1c-1.6-1.4-3.7-2.3-6-2.3c-0.6,0-1,0.4-1,1s0.4,1,1,1
					c2.2,0,4.1,1,5.4,2.6C-110.9,27.6-110.7,26.9-110.5,26.1z M-116.5,21.8c2.5,0,4.8,0.9,6.7,2.3c0.3-0.6,0.5-1.2,0.9-1.9
					c-2.2-1.5-4.8-2.4-7.6-2.4c-0.6,0-1,0.4-1,1S-117.1,21.8-116.5,21.8z M-110.4,63.9l2.8-23c0.1-0.6-0.4-1.1-1-1.1l0,0
					c-0.5,0-0.9,0.4-1,0.9l-2.8,23c-0.1,0.6,0.4,1.1,1,1.1l0,0C-110.9,64.8-110.5,64.4-110.4,63.9z M-104.5,63.8l1-23
					c0-0.6-0.4-1-1-1l0,0c-0.5,0-1,0.4-1,1l-1,23c0,0.6,0.4,1,1,1l0,0C-104.9,64.8-104.5,64.4-104.5,63.8z M-98.5,63.8l-1-23
					c0-0.5-0.5-1-1-1l0,0c-0.6,0-1,0.5-1,1l1,23c0,0.5,0.5,1,1,1l0,0C-99,64.8-98.5,64.3-98.5,63.8z M-92.6,63.7l-2.8-23
					c-0.1-0.5-0.5-0.9-1-0.9l0,0c-0.6,0-1.1,0.5-1,1.1l2.8,23c0.1,0.5,0.5,0.9,1,0.9l0,0C-93,64.8-92.6,64.3-92.6,63.7z
					 M-107.5,32.8c0-10.5,8.5-19,19-19c0.6,0,1-0.4,1-1s-0.4-1-1-1c-11.6,0-21,9.4-21,21c0,0.6,0.4,1,1,1S-107.5,33.4-107.5,32.8z
					 M-103.5,32.8c0-8.3,6.7-15,15-15c0.6,0,1-0.4,1-1s-0.4-1-1-1c-9.4,0-17,7.6-17,17c0,0.6,0.4,1,1,1S-103.5,33.4-103.5,32.8z
					 M-99.5,32.8c0-6.1,4.9-11,11-11c0.6,0,1-0.4,1-1s-0.4-1-1-1c-7.2,0-13,5.8-13,13c0,0.6,0.4,1,1,1S-99.5,33.4-99.5,32.8z
					 M-95.5,32.8c0-3.9,3.1-7,7-7c0.6,0,1-0.4,1-1s-0.4-1-1-1c-5,0-9,4-9,9c0,0.6,0.4,1,1,1S-95.5,33.4-95.5,32.8z M-93.5,36.8
					L-93.5,36.8c0-0.6-0.4-1-1-1h-16c-0.6,0-1,0.4-1,1l0,0c0,0.6,0.4,1,1,1h16C-93.9,37.8-93.5,37.4-93.5,36.8z M-39.5,23.8v2
					c0,3.1-1.4,5-3.6,5c-0.3,0-0.6,0-0.9-0.1l0,0l-1.4,7.6c-0.2,1.6-1.5,3-3.2,3.3l-0.1,0.4c-0.4,3.8-3.2,6.8-6.8,7.6v9.2
					c0,2.2-1.8,4-4,4s-4-1.8-4-4v-9h-13.2l-2.8,2.8v6.2c0,2.2-1.8,4-4,4c-2.2,0-4-1.8-4-4v-13v-2v-7.9c0-3.9,3.2-7.1,7.1-7.1h20.5
					c-0.4-0.8-0.6-1.8-0.6-3v-2h2h2v-1c0-1.7,1.3-3,3-3s3,1.3,3,3h1c0-1.7,1.3-3,3-3s3,1.3,3,3v1h2H-39.5z M-50.6,41.8
					c-2,0-3.8-1.5-4-3.5l-1.4-7.5h-0.5c-0.1,0-0.3,0-0.4,0s-0.3,0-0.4,0h-23.1c-2.8,0-5.1,2.3-5.1,5.1v9.9l0,0v13c0,1.1,0.9,2,2,2
					s2-0.9,2-2v-7l4-4h16v11c0,1.1,0.9,2,2,2s2-0.9,2-2v-11l0,0C-54,47.8-51.1,45.2-50.6,41.8z M-41.5,25.8h-4v-1v-2
					c0-0.6-0.4-1-1-1s-1,0.4-1,1v2h-5v-2c0-0.6-0.4-1-1-1s-1,0.4-1,1v2v1h-4c0,1.3,0.4,2.8,1.3,3h0.7l2-1l0.2,1l0,0l0.3,1.7l1.3,7.5
					l0,0l0,0c0.1,1,1.1,1.7,2.1,1.7h0.4h0.7c1,0,2-0.8,2.1-1.8l1.9-10.1l2,1c0.1,0,0.3,0,0.4,0C-41.9,28.8-41.5,27.2-41.5,25.8z"/>
			</g>
		</g>
	</g>
</g>
<g class="st1">
	<g class="st2">
		<g>
			<g>
				<defs>
					<rect id="SVGID_9_" x="-132.5" y="-9.2" width="100" height="100"/>
				</defs>
				<clipPath id="SVGID_10_">
					<use xlink:href="#SVGID_9_"  style="overflow:visible;"/>
				</clipPath>
				<g class="st8">
					<path d="M-82.4,64c-0.3,0-0.7,0.2-0.9,0.5l-2.5,4.3h6.8l-2.5-4.3C-81.7,64.1-82,64-82.4,64L-82.4,64z"/>
				</g>
			</g>
		</g>
		<g>
			<g>
				<defs>
					<rect id="SVGID_11_" x="-132.5" y="-9.2" width="100" height="100"/>
				</defs>
				<clipPath id="SVGID_12_">
					<use xlink:href="#SVGID_11_"  style="overflow:visible;"/>
				</clipPath>
				<g class="st9">
					<path d="M-110.4,37.4v6.8l4.4-2.5c0.7-0.4,0.7-1.3,0-1.7L-110.4,37.4L-110.4,37.4z"/>
				</g>
			</g>
		</g>
		<g>
			<g>
				<defs>
					<rect id="SVGID_13_" x="-132.5" y="-9.2" width="100" height="100"/>
				</defs>
				<clipPath id="SVGID_14_">
					<use xlink:href="#SVGID_13_"  style="overflow:visible;"/>
				</clipPath>
				<g class="st10">
					<path d="M-54.3,37.4l-4.4,2.5c-0.7,0.4-0.7,1.3,0,1.7l4.4,2.5V37.4L-54.3,37.4z"/>
				</g>
			</g>
		</g>
		<g>
			<g>
				<defs>
					<rect id="SVGID_15_" x="-132.5" y="-9.2" width="100" height="100"/>
				</defs>
				<clipPath id="SVGID_16_">
					<use xlink:href="#SVGID_15_"  style="overflow:visible;"/>
				</clipPath>
				<path class="st11" d="M-82.5,24.8"/>
			</g>
		</g>
		<g>
			<g>
				<defs>
					<rect id="SVGID_17_" x="-132.5" y="-9.2" width="100" height="100"/>
				</defs>
				<clipPath id="SVGID_18_">
					<use xlink:href="#SVGID_17_"  style="overflow:visible;"/>
				</clipPath>
				<path class="st12" d="M-82.5,39.8"/>
			</g>
		</g>
		<g>
			<g>
				<defs>
					<rect id="SVGID_19_" x="-132.5" y="-9.2" width="100" height="100"/>
				</defs>
				<clipPath id="SVGID_20_">
					<use xlink:href="#SVGID_19_"  style="overflow:visible;"/>
				</clipPath>
				<path class="st13" d="M-90.5,54.7l14.9-9.9l1.1-17.9l-14.9,9.9L-90.5,54.7z M-86,38.8l7.5-4.9l-0.5,8.9l-7.5,4.9L-86,38.8z
					 M-82.5,10.8c-16.6,0-30,13.4-30,30s13.4,30,30,30s30-13.4,30-30S-65.9,10.8-82.5,10.8z M-82.5,67.8c-14.9,0-27-12.1-27-27
					c0-13.8,10.4-25.2,23.8-26.8l2.5,4.3c0.4,0.7,1.3,0.7,1.7,0L-79,14c13.2,1.7,23.5,13.1,23.5,26.8
					C-55.5,55.7-67.6,67.8-82.5,67.8z"/>
			</g>
		</g>
	</g>
</g>
<g class="st1">
	<g class="st2">
		<g>
			<g>
				<defs>
					<rect id="SVGID_21_" x="-132.5" y="-9.2" width="100" height="100"/>
				</defs>
				<clipPath id="SVGID_22_">
					<use xlink:href="#SVGID_21_"  style="overflow:visible;"/>
				</clipPath>
				<path class="st14" d="M-67.6,29.9c1.3-1.3,2.1-3.1,2.1-4.9v-4.2c0-3.3-2.7-6-6-6h-22c-3.3,0-6,2.7-6,6v4.1
					c0,1.9,0.7,3.6,2.1,4.9L-87.2,40c0.4,0.4,0.4,1,0,1.4l-10.2,10.3c-1.4,1.4-2.1,3.1-2.1,5v4.1c0,3.3,2.7,6,6,6h22
					c3.3,0,6-2.7,6-6v-4.1c0-1.9-0.7-3.6-2.1-4.9l-10.2-10.3c-0.4-0.4-0.4-1,0-1.4L-67.6,29.9z M-79.2,42.9L-69,53.1
					c0.9,0.9,1.5,2.2,1.5,3.5v4.2c0,2.2-1.8,4-4,4h-22c-2.2,0-4-1.8-4-4v-4.1c0-1.3,0.5-2.6,1.5-3.5L-85.8,43c1.2-1.2,1.2-3.1,0-4.2
					L-96,28.4c-0.9-0.9-1.5-2.2-1.5-3.5v-4.1c0-2.2,1.8-4,4-4h22c2.2,0,4,1.8,4,4v4.1c0,1.3-0.5,2.6-1.5,3.5l-10.2,10.3
					C-80.4,39.8-80.4,41.8-79.2,42.9z M-81.1,46.2l9.6,9.6c0.7,0.7,1,1.6,1,2.5v1.5c0,1.1-0.9,2-2,2h-20c-1.1,0-2-0.9-2-2v-1.5
					c0-0.9,0.4-1.8,1-2.5l9.6-9.6C-83.1,45.4-81.9,45.4-81.1,46.2z M-77.5,32.3l-4.2,4.1c-0.5,0.4-1.2,0.4-1.6,0l-4.2-4.1
					c-0.7-0.7-0.2-2,0.8-2h8.3C-77.3,30.4-76.8,31.6-77.5,32.3z"/>
			</g>
		</g>
	</g>
</g>
<g class="st1">
	<g class="st2">
		<g>
			<g>
				<defs>
					<rect id="SVGID_23_" x="-132.5" y="-9.2" width="100" height="100"/>
				</defs>
				<clipPath id="SVGID_24_">
					<use xlink:href="#SVGID_23_"  style="overflow:visible;"/>
				</clipPath>
				<g class="st15">
					<path d="M-55.5,10.8h-54c-2.2,0-4,1.8-4,4v54c0,2.2,1.8,4,4,4h54c2.2,0,4-1.8,4-4v-54C-51.5,12.6-53.3,10.8-55.5,10.8z
						 M-53.5,68.8c0,1.1-0.9,2-2,2h-54c-1.1,0-2-0.9-2-2v-54c0-1.1,0.9-2,2-2h54c1.1,0,2,0.9,2,2V68.8z M-104.5,27.5l-2-2.7h6
						l-2,2.7v7.3c0,0.6-0.4,1-1,1s-1-0.4-1-1V27.5z M-97.5,34.8v-7.3l-2-2.7h6l-2,2.7v7.3c0,0.6-0.4,1-1,1S-97.5,35.4-97.5,34.8z
						 M-86.5,24.8l-2,2.7v7.3c0,0.6-0.4,1-1,1s-1-0.4-1-1v-7.3l-2-2.7H-86.5z M-102.8,20.8l-2.7,2v-6l2.7,2h14.3c0.6,0,1,0.4,1,1
						s-0.4,1-1,1H-102.8z M-58.5,33.8c0,0.6-0.4,1-1,1h-14.4l-2.6,2v-6l2.6,2h14.4C-58.9,32.8-58.5,33.2-58.5,33.8z M-73.8,27.8
						l-2.7,2v-6l2.7,2h14.3c0.6,0,1,0.4,1,1s-0.4,1-1,1H-73.8z M-73.8,20.8l-2.7,2v-6l2.7,2h14.3c0.6,0,1,0.4,1,1s-0.4,1-1,1H-73.8z
						 M-72.5,47.8l-2,2.6v14.4c0,0.6-0.4,1-1,1s-1-0.4-1-1V50.4l-2-2.6H-72.5z M-65.5,47.8l-2,2.7v14.3c0,0.6-0.4,1-1,1s-1-0.4-1-1
						V50.5l-2-2.7H-65.5z M-58.5,47.8l-2,2.7v14.3c0,0.6-0.4,1-1,1s-1-0.4-1-1V50.5l-2-2.7H-58.5z M-87.5,56.8c0,0.6-0.4,1-1,1
						h-14.3l-2.7,2v-6l2.7,2h14.3C-87.9,55.8-87.5,56.2-87.5,56.8z M-87.5,63.8c0,0.6-0.4,1-1,1h-14.3l-2.7,2v-6l2.7,2h14.3
						C-87.9,62.8-87.5,63.2-87.5,63.8z M-102.7,50.8l-2.8,2v-6l2.8,2h4.2c0.6,0,1,0.4,1,1s-0.4,1-1,1H-102.7z M-88.5,48.8
						c0.6,0,1,0.4,1,1s-0.4,1-1,1h-4.3l-2.7,2v-6l2.7,2H-88.5z M-59.5,42.8h-45c-0.6,0-1-0.4-1-1s0.4-1,1-1h45c0.6,0,1,0.4,1,1
						S-58.9,42.8-59.5,42.8z"/>
				</g>
			</g>
		</g>
	</g>
</g>
<g class="st1">
	<g class="st2">
		<g>
			<g>
				<defs>
					<rect id="SVGID_25_" x="-132.4" y="-9.2" width="99.8" height="99.8"/>
				</defs>
				<clipPath id="SVGID_26_">
					<use xlink:href="#SVGID_25_"  style="overflow:visible;"/>
				</clipPath>
				<path class="st16" d="M-87.5,40.8c0-13.9,4.2-25.5,10.3-30h-14.3c-7.6,0-14,13.7-14,30s6.4,30,14,30h14.3
					C-83.3,66.3-87.5,54.7-87.5,40.8z"/>
			</g>
		</g>
		<g>
			<g>
				<defs>
					<rect id="SVGID_27_" x="-132.4" y="-9.2" width="99.8" height="99.8"/>
				</defs>
				<clipPath id="SVGID_28_">
					<use xlink:href="#SVGID_27_"  style="overflow:visible;"/>
				</clipPath>
				<ellipse class="st17" cx="-50.5" cy="40.8" rx="3" ry="8"/>
			</g>
		</g>
		<g>
			<g>
				<defs>
					<rect id="SVGID_29_" x="-132.4" y="-9.2" width="99.8" height="99.8"/>
				</defs>
				<clipPath id="SVGID_30_">
					<use xlink:href="#SVGID_29_"  style="overflow:visible;"/>
				</clipPath>
				<path class="st18" d="M-50.5,30.8h-1h-4.8c-2.1-12.9-8-22-15.2-22h-20c-7.2,0-13.2,9.1-15.2,22h-5.3c-2.9,0-5,4.3-5,10
					s2.1,10,5,10h5.3c2.1,12.9,8,22,15.2,22h20c7.2,0,13.2-9.1,15.2-22h5.8c2.9,0,5-4.3,5-10S-47.6,30.8-50.5,30.8z M-107,48.8h-5.1
					c-1.2,0-3-3.1-3-8s1.8-8,3-8h5.1c-0.3,2.5-0.5,5.2-0.5,8S-107.3,46.3-107,48.8z M-91.5,70.8c-7.6,0-14-13.7-14-30s6.4-30,14-30
					h14.3c-6.1,4.5-10.3,16.1-10.3,30s4.2,25.5,10.3,30H-91.5z M-71.5,70.8c-7.6,0-14-13.7-14-30s6.4-30,14-30c6,0,11.2,8.5,13.2,20
					h-6.4h-6.8c-2.9,0-5,4.3-5,10s2.1,10,5,10h6.8h6.4C-60.3,62.3-65.5,70.8-71.5,70.8z M-53.6,48.8h-11.1h-6.8c-1.2,0-3-3.1-3-8
					s1.8-8,3-8h6.8h11.2c-1.2,1.8-1.9,4.7-1.9,8S-54.8,47-53.6,48.8z M-50.5,48.8c-1.7,0-3-3.6-3-8s1.3-8,3-8s3,3.6,3,8
					S-48.8,48.8-50.5,48.8z"/>
			</g>
		</g>
	</g>
</g>
<g class="st1">
	<g class="st2">
		<g>
			<g>
				<defs>
					<rect id="SVGID_31_" x="-132.5" y="-9.2" width="100" height="100"/>
				</defs>
				<clipPath id="SVGID_32_">
					<use xlink:href="#SVGID_31_"  style="overflow:visible;"/>
				</clipPath>
				<path class="st19" d="M-55.5,55.8h-27v-5.7h27c0.5,0,1-0.5,1-1c0-0.6-0.5-1-1-1h-3.8V48L-82.5,7.8v-3c0-1.7-1.3-3-3-3
					c-1.7,0-3,1.3-3,3v51h-2c-2.8,0-5,2.2-5,5h-6c-2.8,0-5,2.2-5,5h-6c-2.8,0-5,2.2-5,5s2.2,5,5,5h35c2.8,0,5-2.2,5-5h6
					c2.8,0,5-2.2,5-5h6c2.8,0,5-2.2,5-5S-52.7,55.8-55.5,55.8z M-55.5,63.8c-1.7,0-3-1.4-3-3c0-1.7,1.3-3,3-3s3,1.3,3,3
					C-52.5,62.4-53.8,63.8-55.5,63.8z M-86.5,4.8c0-0.5,0.5-1,1-1s1,0.5,1,1v57c0,0.5-0.5,1-1,1s-1-0.5-1-1V4.8z M-82.5,11.8
					l20.9,36.3h-20.9V11.8z M-88.5,57.8v3h-5c0-0.5,0.1-0.9,0.3-1.3c0.3-0.6,0.8-1.1,1.4-1.4c0.4-0.2,0.8-0.3,1.3-0.3
					C-90.5,57.8-88.5,57.8-88.5,57.8z M-112.5,73.8c-1.7,0-3-1.4-3-3c0-1.7,1.3-3,3-3h31c-0.6,0.8-1,1.9-1,3s0.4,2.2,1,3H-112.5z
					 M-77.5,73.8c-1.7,0-3-1.4-3-3c0-1.7,1.3-3,3-3c1.7,0,3,1.3,3,3C-74.5,72.4-75.8,73.8-77.5,73.8z M-72.9,68.8
					c-0.8-1.8-2.5-3-4.6-3h-27c0-0.5,0.1-0.9,0.3-1.3c0.3-0.6,0.8-1.1,1.4-1.4c0.4-0.2,0.8-0.3,1.3-0.3h13.2c0.4,1.2,1.5,2,2.8,2
					c1.3,0,2.4-0.8,2.8-2h12.2c-0.6,0.8-1,1.9-1,3s0.4,2.2,1,3C-70.5,68.8-72.9,68.8-72.9,68.8z M-66.5,68.8c-1.7,0-3-1.4-3-3
					c0-1.7,1.3-3,3-3s3,1.3,3,3C-63.5,67.4-64.8,68.8-66.5,68.8z M-61.9,63.8c-0.8-1.8-2.5-3-4.6-3h-16v-3h23c-0.6,0.8-1,1.9-1,3
					s0.4,2.2,1,3H-61.9z"/>
			</g>
		</g>
	</g>
</g>
<g class="st1">
	<g class="st2">
		<g>
			<g>
				<defs>
					<rect id="SVGID_33_" x="-132.5" y="-9.2" width="100" height="100"/>
				</defs>
				<clipPath id="SVGID_34_">
					<use xlink:href="#SVGID_33_"  style="overflow:visible;"/>
				</clipPath>
				<path class="st20" d="M-82.5,19.8c-1.7,0-3,1.3-3,3v46c0,1.6,1.3,3,3,3c1.7,0,3-1.4,3-3v-46C-79.5,21.1-80.8,19.8-82.5,19.8z
					 M-83.5,68.8v-46c0-0.5,0.5-1,1-1s1,0.5,1,1v46c0,0.5-0.5,1-1,1S-83.5,69.3-83.5,68.8z M-66.5,3.8h-32c-2.2,0-4,1.8-4,4v66
					c0,2.2,1.8,4,4,4h32c2.2,0,4-1.8,4-4v-66C-62.5,5.6-64.3,3.8-66.5,3.8z M-64.5,73.8c0,1.1-0.9,2-2,2h-32c-1.1,0-2-0.9-2-2v-66
					c0-1.1,0.9-2,2-2h32c1.1,0,2,0.9,2,2V73.8z M-93.5,8.8c-2.2,0-4,1.8-4,4s1.8,4,4,4c2.2,0,4-1.8,4-4S-91.3,8.8-93.5,8.8z
					 M-93.5,14.8c-1.1,0-2-0.9-2-2s0.9-2,2-2s2,0.9,2,2S-92.4,14.8-93.5,14.8z M-82.5,8.8c-2.2,0-4,1.8-4,4s1.8,4,4,4
					c2.2,0,4-1.8,4-4S-80.3,8.8-82.5,8.8z M-82.5,14.8c-1.1,0-2-0.9-2-2s0.9-2,2-2s2,0.9,2,2S-81.4,14.8-82.5,14.8z M-71.5,8.8
					c-2.2,0-4,1.8-4,4s1.8,4,4,4c2.2,0,4-1.8,4-4S-69.3,8.8-71.5,8.8z M-71.5,14.8c-1.1,0-2-0.9-2-2s0.9-2,2-2s2,0.9,2,2
					S-70.4,14.8-71.5,14.8z M-93.5,19.8c-2.2,0-4,1.8-4,4s1.8,4,4,4c2.2,0,4-1.8,4-4S-91.3,19.8-93.5,19.8z M-93.5,25.8
					c-1.1,0-2-0.9-2-2c0-1.1,0.9-2,2-2s2,0.9,2,2C-91.5,24.9-92.4,25.8-93.5,25.8z M-93.5,30.8c-2.2,0-4,1.8-4,4s1.8,4,4,4
					c2.2,0,4-1.8,4-4S-91.3,30.8-93.5,30.8z M-93.5,36.8c-1.1,0-2-0.9-2-2s0.9-2,2-2s2,0.9,2,2S-92.4,36.8-93.5,36.8z M-93.5,41.8
					c-2.2,0-4,1.8-4,4s1.8,4,4,4c2.2,0,4-1.8,4-4S-91.3,41.8-93.5,41.8z M-93.5,47.8c-1.1,0-2-0.9-2-2s0.9-2,2-2s2,0.9,2,2
					S-92.4,47.8-93.5,47.8z M-93.5,52.8c-2.2,0-4,1.8-4,4c0,2.2,1.8,4,4,4c2.2,0,4-1.8,4-4C-89.5,54.6-91.3,52.8-93.5,52.8z
					 M-93.5,58.8c-1.1,0-2-0.9-2-2s0.9-2,2-2s2,0.9,2,2S-92.4,58.8-93.5,58.8z M-93.5,63.8c-2.2,0-4,1.8-4,4s1.8,4,4,4
					c2.2,0,4-1.8,4-4S-91.3,63.8-93.5,63.8z M-93.5,69.8c-1.1,0-2-0.9-2-2s0.9-2,2-2s2,0.9,2,2S-92.4,69.8-93.5,69.8z M-71.5,19.8
					c-2.2,0-4,1.8-4,4s1.8,4,4,4c2.2,0,4-1.8,4-4S-69.3,19.8-71.5,19.8z M-71.5,25.8c-1.1,0-2-0.9-2-2c0-1.1,0.9-2,2-2s2,0.9,2,2
					C-69.5,24.9-70.4,25.8-71.5,25.8z M-71.5,30.8c-2.2,0-4,1.8-4,4s1.8,4,4,4c2.2,0,4-1.8,4-4S-69.3,30.8-71.5,30.8z M-71.5,36.8
					c-1.1,0-2-0.9-2-2s0.9-2,2-2s2,0.9,2,2S-70.4,36.8-71.5,36.8z M-71.5,41.8c-2.2,0-4,1.8-4,4s1.8,4,4,4c2.2,0,4-1.8,4-4
					S-69.3,41.8-71.5,41.8z M-71.5,47.8c-1.1,0-2-0.9-2-2s0.9-2,2-2s2,0.9,2,2S-70.4,47.8-71.5,47.8z M-71.5,52.8c-2.2,0-4,1.8-4,4
					c0,2.2,1.8,4,4,4c2.2,0,4-1.8,4-4C-67.5,54.6-69.3,52.8-71.5,52.8z M-71.5,58.8c-1.1,0-2-0.9-2-2s0.9-2,2-2s2,0.9,2,2
					S-70.4,58.8-71.5,58.8z M-71.5,63.8c-2.2,0-4,1.8-4,4s1.8,4,4,4c2.2,0,4-1.8,4-4S-69.3,63.8-71.5,63.8z M-71.5,69.8
					c-1.1,0-2-0.9-2-2s0.9-2,2-2s2,0.9,2,2S-70.4,69.8-71.5,69.8z"/>
			</g>
		</g>
	</g>
</g>
<g class="st1">
	<g class="st2">
		<g>
			<g>
				<defs>
					<rect id="SVGID_35_" x="-132.5" y="-9.4" width="100" height="100"/>
				</defs>
				<clipPath id="SVGID_36_">
					<use xlink:href="#SVGID_35_"  style="overflow:visible;"/>
				</clipPath>
				<path class="st21" d="M-121.3,57.6c-0.8,0.8-2,0.8-2.8,0c-0.8-0.8-0.8-2,0-2.8c6.1-6.1,13.5-6.1,21-4.7c0.3,1.4,0.6,2.9,0.9,4.3
					C-109.4,52.8-116.1,52.4-121.3,57.6z M-42.1,20.8c-0.8-0.8-2-0.8-2.8,0c-5.2,5.2-11.9,4.8-19.1,3.3c0.3,1.4,0.6,2.8,0.9,4.3
					c7.5,1.4,14.9,1.4,21-4.7C-41.3,22.9-41.3,21.6-42.1,20.8z M-94.3,57.6c-0.1-0.5-0.2-1.1-0.3-1.6c-0.2-1-0.5-2.1-0.7-3.1
					c-0.1-0.4-0.2-0.8-0.3-1.2c-0.1-0.5-0.2-1.1-0.4-1.6c-0.1-0.5-0.2-1.1-0.3-1.6c-1.5-7.2-1.9-13.9,3.3-19.1
					c5.2-5.2,11.9-4.8,19.1-3.3c-0.3-1.4-0.6-2.8-0.9-4.3c-7.5-1.4-14.9-1.4-21,4.7s-6.1,13.5-4.7,21c0.1,0.5,0.2,1.1,0.3,1.6
					s0.2,1.1,0.3,1.6c0.2,1,0.5,2.1,0.7,3.1c0.1,0.4,0.2,0.8,0.3,1.2c0.1,0.5,0.2,1.1,0.4,1.6c0.1,0.5,0.2,1.1,0.3,1.6
					c1.5,7.2,1.9,13.9-3.3,19.1c-0.8,0.8-0.8,2,0,2.8c0.8,0.8,2,0.8,2.8,0c6.1-6.1,6.1-13.5,4.7-21C-94,58.7-94.1,58.1-94.3,57.6z
					 M-79.8,38.3c0.4-0.4,0.4-1,0-1.4l-6.8-6.8c-0.4-0.4-1-0.4-1.4,0s-0.4,1,0,1.4l6.8,6.8C-80.8,38.6-80.2,38.6-79.8,38.3z
					 M-64,7.4l12.7,12.7c0.4,0.4,1,0.4,1.4,0s0.4-1,0-1.4L-62.6,6c-0.4-0.4-1-0.4-1.4,0C-64.4,6.4-64.4,7-64,7.4z M-108.6,56.2
					c-0.4,0.4-0.4,1,0,1.4l7.1,7.1c0.4,0.4,1,0.4,1.4,0s0.4-1,0-1.4l-7.1-7.1C-107.5,55.8-108.2,55.8-108.6,56.2z M-65.4,13
					c-0.4,0.4-0.4,1,0,1.4l7.1,7.1c0.4,0.4,1,0.4,1.4,0s0.4-1,0-1.4L-64,13C-64.4,12.6-65,12.6-65.4,13z M-84,42.5
					c0.4-0.4,0.4-1,0-1.4l-6.8-6.8c-0.4-0.4-1-0.4-1.4,0s-0.4,1,0,1.4l6.8,6.8C-85.1,42.9-84.4,42.9-84,42.5z M-101.5,70.3
					l-12.7-12.7c-0.4-0.4-1-0.4-1.4,0c-0.4,0.4-0.4,1,0,1.4l12.7,12.7c0.4,0.4,1,0.4,1.4,0S-101.1,70.7-101.5,70.3z M-93.7,41.3
					c-0.4,0.4-0.4,1,0,1.4l7.1,7.1c0.4,0.4,1,0.4,1.4,0s0.4-1,0-1.4l-7.1-7.1C-92.7,40.9-93.3,40.9-93.7,41.3z M-62,53.9l-1.2-1
					l-1.2-1c1.2-3.1,0.6-6.8-2-9.3c-0.2-0.2-0.4-0.4-0.6-0.6c-0.2-0.1-0.4-0.3-0.6-0.4l-0.1-0.1c-0.5-0.3-0.9-0.6-1.4-0.8l0,0l0,0
					c-1.1-0.5-2.2-0.7-3.4-0.7c-1,0-2,0.2-3,0.5L-72,44c0.6,0.6,0.9,1.3,1,2.1c0,0.3,0,0.5,0,0.8V47c0,0.2-0.1,0.4-0.1,0.7v0.1
					c-0.1,0.2-0.2,0.4-0.3,0.6c0,0.1-0.1,0.1-0.1,0.2c-0.1,0.2-0.3,0.4-0.5,0.6c-0.7,0.7-1.6,1.1-2.5,1.1l0,0l0,0
					c-0.9,0-1.8-0.4-2.5-1.1l-3.5-3.5c-1,2.7-0.6,5.8,1.2,8.2c0.2,0.3,0.5,0.6,0.8,0.9c0.3,0.3,0.5,0.5,0.8,0.7c0,0,0,0,0.1,0.1
					c1.6,1.2,3.4,1.8,5.3,1.8c1.1,0,2.1-0.2,3.1-0.6l1,1.2l1,1.2l9.9,11.4c1.6,1.6,4.3,1.4,6.2-0.5c1.8-1.8,2.1-4.6,0.5-6.2
					L-62,53.9z M-83.2,53.4c-2.9,0.1-5.9-0.3-9.1-1c0.3,1.4,0.6,2.8,0.9,4.3c3.7,0.7,7.3,1,10.8,0.5l-0.1-0.1
					C-81.8,55.9-82.6,54.7-83.2,53.4z M-71.9,20.8c0.1,0.5,0.2,1.1,0.3,1.6c0.2,1,0.5,2.1,0.7,3.1c0.1,0.4,0.2,0.8,0.3,1.2
					c0.1,0.5,0.2,1.1,0.4,1.6c0.1,0.5,0.2,1.1,0.3,1.6c0.5,2.6,0.9,5.2,1,7.7c1.4,0.5,2.8,1.2,4,2.2c0.2-2.9-0.1-5.9-0.7-8.9
					c-0.1-0.5-0.2-1.1-0.3-1.6c-0.1-0.5-0.2-1.1-0.3-1.6c-0.2-1-0.5-2.1-0.7-3.1c-0.1-0.4-0.2-0.8-0.3-1.2c-0.2-0.6-0.3-1.1-0.5-1.6
					c-0.1-0.5-0.2-1.1-0.3-1.6c-1.5-7.2-1.9-13.9,3.3-19.1c0.8-0.8,0.8-2,0-2.8s-2-0.8-2.8,0c-6.1,6.1-6.1,13.5-4.7,21
					C-72.2,19.7-72.1,20.3-71.9,20.8z M-72.5,37.1c0.4-0.4,0.4-1,0-1.4l-7.1-7.1c-0.4-0.4-1-0.4-1.4,0s-0.4,1,0,1.4l7.1,7.1
					C-73.5,37.5-72.9,37.5-72.5,37.1z"/>
			</g>
		</g>
	</g>
</g>
<g class="st1">
	<g class="st2">
		<g>
			<g>
				<defs>
					<rect id="SVGID_37_" x="-132.5" y="-9.2" width="100" height="100"/>
				</defs>
				<clipPath id="SVGID_38_">
					<use xlink:href="#SVGID_37_"  style="overflow:visible;"/>
				</clipPath>
				<path class="st22" d="M-78.5,60.8l-0.2,0.1c0,0,0-0.1-0.1-0.1H-78.5z"/>
			</g>
		</g>
		<g>
			<g>
				<defs>
					<rect id="SVGID_39_" x="-132.5" y="-9.2" width="100" height="100"/>
				</defs>
				<clipPath id="SVGID_40_">
					<use xlink:href="#SVGID_39_"  style="overflow:visible;"/>
				</clipPath>
				<path class="st23" d="M-63.5,34.3c-8.8,0-16.1,5.9-18.3,14c-0.1,0.3-0.2,0.7-0.2,1c-0.1,0.3-0.1,0.7-0.2,1c-0.2,1-0.2,2-0.2,3
					c0,2.3,0.4,4.5,1.1,6.5c0.1,0.3,0.3,0.7,0.4,1c0.1,0.3,0.3,0.7,0.5,1c0.8,1.7,1.9,3.2,3.1,4.5c0.3,0.3,0.7,0.7,1,1
					c0.4,0.4,0.8,0.7,1.2,1c3.2,2.5,7.3,4,11.7,4c2.1,0,4.1-0.3,6-1c0.3-0.1,0.7-0.2,1-0.4c0.3-0.1,0.7-0.3,1-0.4
					c6.5-3,11-9.6,11-17.2C-44.5,42.8-53,34.3-63.5,34.3z M-78.7,60.9C-78.7,60.9-78.7,60.8-78.7,60.9c-0.3-0.4-0.4-0.8-0.6-1.1
					c-0.8-2-1.3-4.2-1.3-6.5c0-1,0.1-2,0.3-3c0-0.3,0.1-0.7,0.2-1c0.1-0.3,0.2-0.7,0.3-1c0.3-0.9,0.6-1.8,1-2.6l13.3,7.6l-13,7.5
					L-78.7,60.9z M-64.5,70.3c-2.5-0.1-4.9-0.8-7-2c-0.6-0.3-1.1-0.6-1.7-1c-0.5-0.3-0.9-0.6-1.3-1c-1.3-1-2.4-2.3-3.3-3.7l13.3-7.6
					V70.3z M-64.5,51.6L-77.7,44c2.9-4.3,7.7-7.3,13.2-7.6V51.6z M-62.5,36.3c5.5,0.3,10.3,3.3,13.2,7.6l-13.2,7.7V36.3z
					 M-55.5,68.3c-0.3,0.2-0.7,0.3-1,0.5s-0.7,0.3-1,0.4c-1.6,0.6-3.2,1-5,1.1V55l13.2,7.6C-50.9,65-53,66.9-55.5,68.3z M-61.5,53.3
					l13.2-7.6c1.2,2.3,1.8,4.9,1.8,7.6s-0.7,5.3-1.8,7.6L-61.5,53.3z M-93.6,15.8c0.6,0,1,0.5,1,1.1l-0.8,12c0,0.5-0.5,0.9-1,0.9
					c-0.6,0-1-0.5-1-1.1l0.8-12C-94.5,16.2-94.1,15.8-93.6,15.8z M-102.4,16.7l0.8,12c0,0.6-0.4,1.1-1,1.1c-0.5,0-1-0.4-1-0.9
					l-0.8-12c0-0.6,0.4-1.1,1-1.1C-102.9,15.8-102.5,16.2-102.4,16.7z M-57.5,73.4c-1.9,0.6-3.9,0.9-6,0.9c-5.7,0-10.9-2.3-14.7-6
					c-0.3-0.3-0.7-0.7-1-1c-0.3-0.3-0.6-0.7-0.8-1h-29.7c-0.1,0-0.2,0-0.4,0c-2.3-0.2-4.1-2.1-4.1-4.4v-7.1c0-2.5,2-4.5,4.5-4.5h5.8
					c0.5,2.3,2.5,4,4.9,4h1.5c2.4,0,4.4-1.7,4.9-4h8.3c0-0.3,0.1-0.7,0.2-1c0.1-0.3,0.1-0.7,0.2-1h-8.6v-14H-104v14h-5.7
					c-3.6,0-6.5,2.9-6.5,6.5v7c0,3.4,2.7,6.2,6.1,6.4v11.6h54.6v-7.1c-0.3,0.1-0.7,0.3-1,0.4S-57.2,73.3-57.5,73.4z M-102,36.3h7.5
					v13c0,0.3-0.1,0.7-0.2,1c-0.4,1.2-1.5,2-2.8,2H-99c-1.3,0-2.4-0.8-2.8-2c-0.1-0.3-0.2-0.7-0.2-1V36.3z M-112,24.7
					c-3.7-0.4-6.7-3.3-7.3-6.9c-0.7-4,1.4-7.8,4.9-9.3c0.4-4.3,4-7.7,8.5-7.7c0.3,0,0.6,0,1,0c1.4-1.9,3.6-3,6-3
					c2.5,0,4.8,1.2,6.1,3.2c0.6-0.1,1.2-0.2,1.9-0.2c4.6,0,8.4,3.7,8.5,8.3c2.9,1.8,4.5,5.2,3.9,8.8c-0.6,3.4-3.3,6.1-6.6,6.8
					c-1.2,0.2-2.3,0.2-3.4,0c-0.5-0.1-0.8-0.5-0.8-1c0-0.6,0.6-1.1,1.2-1c1.1,0.2,2.3,0.2,3.6-0.3c2.1-0.8,3.8-2.8,4.1-5
					c0.5-3.1-1.3-6-4-7c0.2-1,0.1-1.9-0.4-3.1c-0.7-1.9-2.2-3.4-4.2-4c-1.7-0.5-3.4-0.3-4.7,0.4c-0.9-2.4-2.9-3.9-5.3-3.9
					c-2.3,0-4.2,1.4-5,3.3c-1.8-0.6-4-0.4-6,1.2c-1.5,1.2-2.4,3.1-2.4,5c0,0.2,0,0.5,0,0.7c-3,0.7-5.2,3.4-5,6.6
					c0.1,3.1,2.5,5.7,5.5,6.1c1.1,0.2,2.1,0,3.1-0.3c0.6-0.2,1.3,0.2,1.3,0.9l0,0c0,0.4-0.2,0.8-0.6,0.9
					C-109.4,24.7-110.7,24.9-112,24.7z M-98.5,10.8c0.5,0,1,0.5,1,1v17c0,0.5-0.5,1-1,1s-1-0.5-1-1v-17
					C-99.5,11.3-99,10.8-98.5,10.8z"/>
			</g>
		</g>
	</g>
</g>
<g class="st1">
	<g class="st2">
		<g>
			<g>
				<defs>
					<rect id="SVGID_41_" x="-132.5" y="-9.2" width="100" height="100"/>
				</defs>
				<clipPath id="SVGID_42_">
					<use xlink:href="#SVGID_41_"  style="overflow:visible;"/>
				</clipPath>
				<path class="st24" d="M-96.1,13.8c1.2,0,2.3-0.4,3.2-1.3c1.8-1.8,1.8-4.6,0-6.4c-0.9-0.9-2-1.3-3.2-1.3c-1.2,0-2.3,0.4-3.2,1.3
					c-1.8,1.8-1.8,4.6,0,6.4C-98.4,13.4-97.2,13.8-96.1,13.8z M-97.9,7.5c0.5-0.5,1.1-0.7,1.8-0.7c0.7,0,1.3,0.3,1.8,0.7
					s0.7,1.1,0.7,1.8c0,0.7-0.3,1.3-0.7,1.8s-1.1,0.7-1.8,0.7c-0.7,0-1.3-0.3-1.8-0.7C-98.8,10.1-98.8,8.5-97.9,7.5z M-54.5,60.1
					c-1.1-1.1-2.6-1.8-4-2c0.3-2.1-0.3-4.4-2-6c-0.2-0.2-0.4-0.4-0.7-0.6l2.6-2.6c2.3-2.3,2.3-6.1,0-8.5l-0.7-0.7l0.7-0.7
					c1.6-1.6,1.6-4.1,0-5.7c-0.5-0.5-1.1-0.8-1.8-1l1.8-1.8c1.6-1.6,1.6-4.1,0-5.7c-0.5-0.5-1.2-0.9-1.9-1c1.3-1.6,1.2-3.9-0.3-5.3
					c-1.5-1.5-3.8-1.5-5.3-0.3c-0.2-0.7-0.5-1.3-1-1.9c-1.6-1.6-4.1-1.6-5.7,0l-4.9,4.9l-5.7-5.7c-1.2-1.2-2.7-1.8-4.2-1.8
					s-3.1,0.6-4.2,1.8l-2.9,2.9c-1.2-1-2.7-1.6-4.2-1.6c-1.7,0-3.3,0.6-4.6,1.9c-2.4,2.4-2.5,6.3-0.3,8.8l-1.4,1.4
					c-2.3,2.3-2.3,6.1,0,8.5l0,0l-2.1,2.1c-6.2,6.2-6.5,16.7-0.3,22.9c6.3,6.3,16.7,6,22.9-0.3l2.1-2.1l2.1,2.1
					c0.9,0.9,2,1.4,3.1,1.6c-0.3,2.1,0.3,4.4,2,6c1.4,1.4,3.2,2.1,4.9,2.1c1.8,0,3.6-0.7,4.9-2.1c0.2-0.2,0.4-0.4,0.6-0.6
					c0.2,0.2,0.4,0.4,0.6,0.6c1.4,1.4,3.2,2.1,4.9,2.1c1.8,0,3.6-0.7,4.9-2.1C-51.8,67.3-51.8,62.8-54.5,60.1z M-60.3,34.5
					c1,0.7,1.1,2.2,0.3,3l-0.7,0.7l-2.8-2.8l0.6-0.6C-62.2,34.1-61.1,34-60.3,34.5z M-60.3,26.1c1,0.7,1.1,2.2,0.3,3l-4.2,4.2
					l-0.7,0.7l-2.8-2.8l4.9-4.9C-62.2,25.6-61.1,25.5-60.3,26.1z M-65.1,20c0.7-0.7,1.8-0.9,2.6-0.3c1,0.7,1.1,2.2,0.3,3l-7,7.1
					L-72,27L-65.1,20z M-71.4,17.9c0.7-0.7,1.8-0.9,2.6-0.3c1,0.7,1.1,2.2,0.3,3l-5,5l-2.8-2.8L-71.4,17.9z M-98.9,18.9
					c1,0,2,0.4,2.8,1l0,0C-96,20-96,20-95.9,20.1c0.1,0,0.1,0.1,0.2,0.1c0.2,0.2,0.3,0.4,0.5,0.6c0.1,0.2,0.3,0.4,0.4,0.6
					c0.3,0.6,0.5,1.3,0.5,1.9c0,1.2-0.5,2.3-1.3,3.2c-0.9,0.8-2,1.3-3.2,1.3c-0.7,0-1.3-0.2-1.9-0.5c-0.2-0.1-0.4-0.2-0.6-0.4
					c-0.2-0.1-0.4-0.3-0.6-0.5l0,0c-0.1-0.1-0.1-0.1-0.2-0.2c-0.7-0.8-1.1-1.9-1.1-3c0-1.2,0.5-2.3,1.3-3.2
					C-101.2,19.4-100.1,18.9-98.9,18.9z M-86.2,60.9c-5.6,5.6-15.2,5.7-20.6-0.2c-5.1-5.6-4.3-14.5,1.1-19.9l3.2-3.2l2.3-2.3
					c0.7-0.7,1.8-0.9,2.6-0.3c1,0.7,1.1,2.2,0.3,3l-4.5,4.5c-0.4,0.4-0.4,1,0,1.4s1,0.4,1.4,0l13.6-13.6c0.7-0.7,1.8-0.9,2.6-0.3
					c1,0.7,1.1,2.2,0.3,3l-9.9,9.9c-0.4,0.4-0.4,1,0,1.4s1,0.4,1.4,0l11.9-11.9c0.7-0.7,1.8-0.9,2.6-0.3c1,0.7,1.1,2.2,0.3,3l-12,12
					c-0.4,0.4-0.4,1,0,1.4s1,0.4,1.4,0l9.8-9.8c0.7-0.7,1.8-0.9,2.6-0.3c1,0.7,1.1,2.2,0.3,3l-11.1,11.5c-0.1,0.1-0.2,0.2-0.2,0.4
					l0,0c0,0.1-0.1,0.2-0.1,0.3v0.1c0,0.1,0,0.2,0,0.2V54c0,0.1,0.1,0.2,0.2,0.3l0,0l0,0c0.1,0.1,0.2,0.1,0.3,0.2h0.1
					c0.1,0,0.1,0,0.2,0h0.1c0.1,0,0.2,0,0.3-0.1c0.1,0,0.2-0.1,0.4-0.2l7-7c0.7-0.7,1.8-0.9,2.6-0.3c1,0.7,1.1,2.2,0.3,3L-86.2,60.9
					z M-79.1,60.9l-2.1-2.1l7.4-7.4c1.6-1.6,1.6-4.1,0-5.7c-0.5-0.5-1.1-0.8-1.8-1l1.8-1.8c1.6-1.6,1.6-4.1,0-5.7
					c-0.5-0.5-1.2-0.9-1.9-1c1.3-1.6,1.2-3.9-0.3-5.3s-3.8-1.5-5.3-0.3c-0.2-0.7-0.5-1.3-1-1.9c-1.6-1.6-4.1-1.6-5.7,0l-6.8,6.8
					c-0.2-0.7-0.5-1.3-1-1.8c-1.6-1.6-4.1-1.6-5.7,0l-2.4,2.4l0,0c-0.8-0.8-1.2-1.8-1.2-2.8s0.4-2.1,1.2-2.8l1.5-1.5
					c1,0.6,2.2,1,3.4,1c1.7,0,3.3-0.6,4.6-1.9c2.2-2.2,2.5-5.5,0.9-8l3-3c0.8-0.8,1.8-1.2,2.8-1.2c1.1,0,2.1,0.4,2.8,1.2l18.4,18.4
					l1.4,1.4l0,0l2.8,2.8l0,0l1.4,1.4l0,0l0.7,0.7c0.8,0.8,1.2,1.8,1.2,2.8c0,1.1-0.4,2.1-1.2,2.8l-3,3c-0.8-0.3-1.6-0.4-2.5-0.4
					c-1.8,0-3.6,0.7-4.9,2.1c-1.7,1.7-2.3,4-1.9,6.2c-1.1,0.3-2.2,0.9-3.1,1.8c-0.6,0.6-1,1.2-1.4,1.9
					C-77.7,61.9-78.5,61.5-79.1,60.9z M-56,68.6c-0.9,0.9-2.2,1.5-3.5,1.5s-2.6-0.5-3.5-1.5c-0.1-0.1-0.3-0.3-0.4-0.5l-1.6-2l-1.6,2
					c-0.1,0.2-0.3,0.3-0.4,0.4c-0.9,0.9-2.2,1.5-3.5,1.5c-1.3,0-2.6-0.5-3.5-1.5c-0.9-0.9-1.5-2.2-1.5-3.5c0-0.6,0.1-1.2,0.3-1.8
					c0-0.1,0.1-0.2,0.1-0.3c0.1-0.2,0.2-0.3,0.3-0.5c0.1-0.1,0.1-0.2,0.2-0.2c0.2-0.2,0.3-0.5,0.6-0.7l0,0c0.3-0.3,0.6-0.5,0.9-0.7
					c0.4-0.2,0.8-0.4,1.3-0.6l1.3-0.4l0.4-0.1l-0.3-1.8c0,0,0,0,0-0.1c-0.3-1.6,0.2-3.2,1.4-4.4c0.9-0.9,2.2-1.5,3.5-1.5
					c0.3,0,0.5,0,0.8,0.1l0,0c0.1,0,0.3,0.1,0.4,0.1s0.3,0.1,0.4,0.1c0.1,0.1,0.3,0.1,0.4,0.2c0.2,0.1,0.3,0.2,0.5,0.3
					c0.1,0,0.2,0.1,0.2,0.1c0.2,0.2,0.5,0.4,0.7,0.6c1.1,1.1,1.6,2.7,1.4,4.3l-0.3,2l2,0.3c1.1,0.1,2.1,0.6,2.9,1.4
					c0.9,0.9,1.5,2.2,1.5,3.5C-54.5,66.4-55,67.7-56,68.6z"/>
			</g>
		</g>
	</g>
</g>
<g class="st1">
	<g class="st2">
		<g>
			<g>
				<defs>
					<rect id="SVGID_43_" x="-132.5" y="-9.2" width="100" height="100"/>
				</defs>
				<clipPath id="SVGID_44_">
					<use xlink:href="#SVGID_43_"  style="overflow:visible;"/>
				</clipPath>
				<path class="st25" d="M-54.5,44.2L-54.5,44.2c-0.1-0.1-0.2-0.2-0.2-0.2c-1.3-1.3-2.4-1.6-3.4-1.8c-0.9-0.2-1.5-0.3-2.5-1.3
					c-0.9-0.9-1.2-1.5-1.4-2.3c-0.2-1-0.4-2.2-1.7-3.5l-0.8-0.9c1.3-1.9,1.1-4.6-0.6-6.3l0,0l1.4-1.4c0.4-0.4,0.4-1,0-1.4
					c-0.2-0.2-0.5-0.3-0.7-0.3s-0.5,0.1-0.7,0.3l-1.4,1.4l-2.1-2.1l1.4-1.4c0.4-0.4,0.4-1,0-1.4c-0.2-0.2-0.5-0.3-0.7-0.3
					s-0.5,0.1-0.7,0.3L-70,23l0,0c-0.7-0.7-1.5-1.1-2.3-1.3v-2.9c0-0.6-0.4-1-1-1s-1,0.4-1,1v2.8c-0.7,0.1-1.4,0.4-2,0.8l-1.5-1.6
					c-0.2-0.2-0.5-0.3-0.7-0.3c-0.2,0-0.5,0.1-0.7,0.3c-0.4,0.4-0.4,1,0,1.4l1.5,1.5c-0.4,0.5-0.6,1.1-0.7,1.8H-81c-0.6,0-1,0.4-1,1
					s0.4,1,1,1h2.5c0.2,0.9,0.6,1.8,1.4,2.5l-1.4,1.4c-0.4,0.4-0.4,1,0,1.4c0.2,0.2,0.5,0.3,0.7,0.3c0.2,0,0.5-0.1,0.7-0.3l1.4-1.4
					l2.1,2.1l-1.4,1.4c-0.4,0.4-0.4,1,0,1.4c0.2,0.2,0.5,0.3,0.7,0.3c0.2,0,0.5-0.1,0.7-0.3l1.4-1.4c0.8,0.8,1.7,1.2,2.7,1.4v2.8
					c0,0.6,0.4,1,1,1s1-0.4,1-1v-2.9c0.5-0.1,1.1-0.3,1.5-0.7l0.8,0.8c0.9,0.9,1,1.7,1.2,2.6c0.2,1,0.6,2,1.9,3.3s2.4,1.6,3.4,1.8
					c0.9,0.2,1.5,0.3,2.5,1.3c0.1,0.1,0.2,0.2,0.2,0.2l0,0l0.7,0.7c0.4,0.4,1,0.4,1.4,0s0.4-1,0-1.4L-54.5,44.2z M-68.6,34.4
					c-0.8,0-1.6-0.3-2.1-0.9l-4.9-4.9c-0.6-0.6-0.9-1.3-0.9-2.1s0.3-1.6,0.9-2.1c0.6-0.5,1.3-0.9,2.1-0.9c0.8,0,1.6,0.3,2.1,0.9
					l4.9,4.9c0.6,0.6,0.9,1.3,0.9,2.1s-0.3,1.6-0.9,2.1C-67.1,34.1-67.8,34.4-68.6,34.4z M-60.9,52.9h-2.6c-0.2-0.9-0.6-1.8-1.4-2.5
					l1.4-1.4c0.4-0.4,0.4-1,0-1.4c-0.2-0.2-0.5-0.3-0.7-0.3s-0.5,0.1-0.7,0.3l-1.4,1.4l-2.1-2.2l1.4-1.4c0.4-0.4,0.4-1,0-1.4
					c-0.2-0.2-0.5-0.3-0.7-0.3s-0.5,0.1-0.7,0.3l-1.4,1.4c-0.8-0.8-1.7-1.2-2.7-1.4v-2.8c0-0.6-0.4-1-1-1s-1,0.4-1,1v2.9
					c-0.5,0.1-1.1,0.3-1.6,0.7l-0.8-0.8c-0.9-0.9-1-1.7-1.2-2.6c-0.2-1-0.6-2-1.9-3.3c-1.3-1.3-2.4-1.6-3.4-1.8
					c-0.9-0.2-1.5-0.3-2.5-1.3c-0.1-0.1-0.2-0.2-0.2-0.2l0,0l-0.7-0.7c-0.4-0.4-1-0.4-1.4,0s-0.4,1,0,1.4l0.7,0.7l0,0
					c0.1,0.1,0.1,0.2,0.2,0.2c1.3,1.3,2.4,1.6,3.4,1.8c0.9,0.2,1.5,0.3,2.5,1.3c0.9,0.9,1.2,1.5,1.4,2.3c0.2,1,0.4,2.2,1.7,3.5
					l0.8,0.8c-0.4,0.5-0.6,1.1-0.7,1.8h-3c-0.6,0-1,0.4-1,1s0.4,1,1,1h3c0.2,0.9,0.6,1.8,1.4,2.5l0,0l-1.4,1.4c-0.4,0.4-0.4,1,0,1.4
					c0.2,0.2,0.5,0.3,0.7,0.3c0.2,0,0.5-0.1,0.7-0.3l1.4-1.4l2.1,2.1l-1.4,1.4c-0.4,0.4-0.4,1,0,1.4c0.2,0.2,0.5,0.3,0.7,0.3
					c0.2,0,0.5-0.1,0.7-0.3l1.4-1.4l0,0c0.7,0.7,1.5,1.1,2.3,1.3v2.9c0,0.6,0.4,1,1,1s1-0.4,1-1v-2.7c0.7-0.1,1.4-0.4,2-0.8l1.5,1.5
					c0.2,0.2,0.5,0.3,0.7,0.3s0.5-0.1,0.7-0.3c0.4-0.4,0.4-1,0-1.4l-1.5-1.5c0.4-0.5,0.6-1.1,0.7-1.8h2.6c0.6,0,1-0.4,1-1
					C-59.9,53.3-60.4,52.9-60.9,52.9z M-75.5,51.1c-0.6-0.6-0.9-1.3-0.9-2.1s0.3-1.6,0.9-2.1c0.6-0.5,1.3-0.9,2.1-0.9
					c0.8,0,1.6,0.3,2.1,0.9l4.9,4.9c0.6,0.6,0.9,1.3,0.9,2.1s-0.3,1.6-0.9,2.1c-0.6,0.6-1.3,0.9-2.1,0.9c-0.8,0-1.6-0.3-2.1-0.9
					L-75.5,51.1z M-47.9,18.2c-6.2-6.3-14.4-9.4-22.6-9.4s-16.4,3.1-22.6,9.4c-12.5,12.5-12.5,32.8,0,45.3
					c6.2,6.2,14.4,9.3,22.6,9.3s16.4-3.1,22.6-9.4C-35.4,50.9-35.4,30.7-47.9,18.2z M-52.1,59.2c-4.9,4.9-11.5,7.6-18.4,7.6
					c-6,0-11.6-2-16.2-5.7l5.3-5.3l-4.1-4.1l-5.3,5.3c-8.1-10.2-7.5-25.2,1.9-34.6c4.9-4.9,11.5-7.6,18.4-7.6c6,0,11.6,2,16.2,5.7
					l-5.3,5.3l4.1,4.1l5.3-5.3C-42,34.8-42.7,49.7-52.1,59.2z M-106.5,39h-16V18.9c0-8.6,7-15.6,15.5-15.6c4.1,0,8,1.6,11,4.6
					c1.4,1.4,2.4,3,3.2,4.7c0.8-0.6,1.6-1.2,2.5-1.8c-0.9-1.8-2.1-3.5-3.5-5c-3.5-3.5-8.1-5.5-13.1-5.5c-10.3,0-18.6,8.4-18.6,18.6
					v42.3c0,10.2,8.3,18.6,18.5,18.6c6.9,0,12.8-3.8,16-9.4c-1.8-1.2-3.4-2.6-5-4.2C-103.4,58.8-106.9,48.8-106.5,39z M-112.6,70
					c-0.5,0.7-1.4,0.9-2.1,0.4c-2.9-2.2-4.8-5.7-4.8-9.6V47.3c0-0.8,0.7-1.5,1.5-1.5s1.5,0.7,1.5,1.5v13.5c0,2.9,1.4,5.6,3.6,7.2
					C-112.3,68.5-112.2,69.4-112.6,70z"/>
			</g>
		</g>
	</g>
</g>
<g class="st1">
	<g class="st2">
		<g>
			<g>
				<defs>
					<rect id="SVGID_45_" x="-132.5" y="-9.2" width="100" height="100"/>
				</defs>
				<clipPath id="SVGID_46_">
					<use xlink:href="#SVGID_45_"  style="overflow:visible;"/>
				</clipPath>
				<path class="st26" d="M-56.6,45.8c-1.7,1-2.9,2.7-2.9,4.7v0.3h-4v-0.4c0-2-1.2-3.7-2.9-4.7c-0.7-0.4-1.1-0.9-1.1-1.4
					c0-1.4,2.7-2.5,6-2.5s6,1.1,6,2.5C-55.5,44.8-55.9,45.3-56.6,45.8z M-54.5,54.8c0,1.1-0.9,2-2,2h-8c-3.4,0-5.2-1.3-6.7-2.4
					c-1.3-0.9-2.2-1.6-4.3-1.6h-12.3l0.3,4h11c1.1,0,2,0.9,2,2v5c0,1.1-0.9,2-2,2h-30c-1.1,0-2-0.9-2-2v-5c0-1.1,0.9-2,2-2h4l0.5-4
					h-4.5c-1.1,0-2-0.9-2-2s0.9-2,2-2h4.9l0.3-2.3c0.1-1,1-1.7,2-1.7h9.1c1,0,1.9,0.8,2,1.8l0.2,2.2h12.5c3.4,0,5.2,1.3,6.7,2.4
					c1.3,0.9,2.2,1.6,4.3,1.6h8C-55.4,52.8-54.5,53.7-54.5,54.8z M-90.3,46.8h-9l-0.2,2l-1,8.2l-0.2,1.8h-5.8v5h30v-5h-12.8
					L-90.3,46.8z M-95,48.8c-1.4,0-2.5,1.1-2.5,2.5s1.1,2.5,2.5,2.5s2.5-1.1,2.5-2.5S-93.6,48.8-95,48.8z M-61.5,17.8v13
					c0,2.2-1.8,4-4,4h-8l-7.7,6.8c-0.4,0.4-0.9,0.5-1.3,0.5c-1,0-2-0.8-2-2v-5.3h-16c-2.2,0-4-1.8-4-4v-13c0-2.2,1.8-4,4-4h35
					C-63.3,13.8-61.5,15.6-61.5,17.8z M-63.5,17.8c0-1.1-0.9-2-2-2h-35c-1.1,0-2,0.9-2,2v13c0,1.1,0.9,2,2,2h16h2v2v5.3l7.7-6.8
					l0.6-0.5h0.7h8c1.1,0,2-0.9,2-2V17.8z M-79.5,21.3L-79.5,21.3c0-0.8-0.7-1.5-1.5-1.5h-11c-0.8,0-1.5,0.7-1.5,1.5l0,0
					c0,0.8,0.7,1.5,1.5,1.5h11C-80.2,22.8-79.5,22.1-79.5,21.3z M-66.5,27.3L-66.5,27.3c0-0.8-0.7-1.5-1.5-1.5h-9
					c-0.8,0-1.5,0.7-1.5,1.5l0,0c0,0.8,0.7,1.5,1.5,1.5h9C-67.2,28.8-66.5,28.1-66.5,27.3z M-87.5,27.3L-87.5,27.3
					c0-0.8-0.7-1.5-1.5-1.5h-9c-0.8,0-1.5,0.7-1.5,1.5l0,0c0,0.8,0.7,1.5,1.5,1.5h9C-88.2,28.8-87.5,28.1-87.5,27.3z M-74,19.8
					c-0.8,0-1.5,0.7-1.5,1.5s0.7,1.5,1.5,1.5c0.8,0,1.5-0.7,1.5-1.5S-73.2,19.8-74,19.8z M-98,19.8c-0.8,0-1.5,0.7-1.5,1.5
					s0.7,1.5,1.5,1.5c0.8,0,1.5-0.7,1.5-1.5S-97.2,19.8-98,19.8z M-83,25.8c-0.8,0-1.5,0.7-1.5,1.5s0.7,1.5,1.5,1.5
					c0.8,0,1.5-0.7,1.5-1.5S-82.2,25.8-83,25.8z M-68,19.8c-0.8,0-1.5,0.7-1.5,1.5s0.7,1.5,1.5,1.5s1.5-0.7,1.5-1.5
					S-67.2,19.8-68,19.8z"/>
			</g>
		</g>
	</g>
</g>
<g class="st1">
	<g class="st2">
		<g>
			<g>
				<defs>
					<rect id="SVGID_47_" x="-132.5" y="-9.2" width="100" height="100"/>
				</defs>
				<clipPath id="SVGID_48_">
					<use xlink:href="#SVGID_47_"  style="overflow:visible;"/>
				</clipPath>
				<g class="st27">
					<path d="M-80.1,23.1l-3.1,4.3c-1.8-0.5-3.5-0.7-5.3-0.7c-4.9,0-9.8,1.8-13.7,5.3c-0.4,0.4-0.4,1,0,1.4l8.6,8.6l-2.9,3.8l9,9
						l3.9-2.8l8.7,8.7c0.4,0.4,1.1,0.4,1.4,0c4.9-5.4,6.3-12.7,4.5-19.3l4.2-3c9-7.6,9.6-13.8,10.3-25.6l0,0
						C-66.3,13.5-72.5,14.1-80.1,23.1z M-100.1,32.7c3.3-2.6,7.3-4.1,11.5-4.1c1.4,0,2.8,0.2,4.1,0.5l-8,11.2L-100.1,32.7z
						 M-74.2,58.6l-7.8-7.8l11.3-8.1C-69.4,48.1-70.5,54-74.2,58.6z M-66,36.9l-21.3,15.3l-6.6-6.6l15.3-21.3
						c6.6-7.7,11.5-8.7,21.9-9.4C-57.3,25.3-58.3,30.3-66,36.9z"/>
					<path d="M-66.9,30.8c1.4,0,2.8-0.5,3.9-1.6c2.1-2.1,2.1-5.6,0-7.7c-1.1-1.1-2.5-1.6-3.9-1.6s-2.8,0.5-3.9,1.6
						c-2.1,2.1-2.1,5.6,0,7.7C-69.7,30.3-68.3,30.8-66.9,30.8z M-69.3,22.9c0.7-0.7,1.5-1,2.4-1s1.8,0.4,2.4,1
						c1.3,1.3,1.3,3.5,0,4.9c-0.7,0.7-1.5,1-2.4,1s-1.8-0.4-2.4-1C-70.7,26.4-70.7,24.3-69.3,22.9z"/>
					<path d="M-93,54.8l-14.4,10.9l10.9-14.5c0.4-0.4,0.3-1.1-0.1-1.4c-0.4-0.4-1.1-0.3-1.4,0.1l-17.3,22.3c-0.3,0.4-0.3,1,0.1,1.3
						c0.2,0.2,0.5,0.3,0.7,0.3c0.2,0,0.4-0.1,0.6-0.2l22.1-17.2c0.4-0.3,0.5-1,0.1-1.4C-91.9,54.5-92.6,54.4-93,54.8z"/>
				</g>
			</g>
		</g>
	</g>
</g>
<g class="st1">
	<g class="st2">
		<g>
			<g>
				<defs>
					<rect id="SVGID_49_" x="-132.5" y="-9.2" width="100" height="100"/>
				</defs>
				<clipPath id="SVGID_50_">
					<use xlink:href="#SVGID_49_"  style="overflow:visible;"/>
				</clipPath>
				<path class="st28" d="M-60.6,14.8C-60.5,14.8-60.5,14.8-60.6,14.8l0.1,31.9c0,0,0,0.1-0.1,0.1h-43.8c0,0-0.1,0-0.1-0.1V14.9
					c0,0,0-0.1,0.1-0.1H-60.6 M-60.6,12.8h-43.8c-1.2,0-2.1,0.9-2.1,2.1v31.8c0,1.2,0.9,2.1,2.1,2.1h43.8c1.2,0,2.1-0.9,2.1-2.1
					V14.9C-58.5,13.7-59.4,12.8-60.6,12.8L-60.6,12.8z M-60.5,54.8v10h-44v-10H-60.5 M-60.4,52.8h-44.2c-1,0-1.9,0.8-1.9,1.9V65
					c0,1,0.8,1.9,1.9,1.9h44.3c1,0,1.9-0.8,1.9-1.9V54.7C-58.5,53.6-59.3,52.8-60.4,52.8L-60.4,52.8z M-62.5,16.8h-40v28h40V16.8z
					 M-87.5,58.8h-12c-0.6,0-1,0.4-1,1s0.4,1,1,1h12c0.6,0,1-0.4,1-1S-86.9,58.8-87.5,58.8L-87.5,58.8z M-65.5,57.8
					c-1.1,0-2,0.9-2,2s0.9,2,2,2s2-0.9,2-2S-64.4,57.8-65.5,57.8L-65.5,57.8z"/>
			</g>
		</g>
	</g>
</g>
<g class="st1">
	<g class="st2">
		<g>
			<g>
				<defs>
					<rect id="SVGID_51_" x="-132.5" y="-9.2" width="100" height="100"/>
				</defs>
				<clipPath id="SVGID_52_">
					<use xlink:href="#SVGID_51_"  style="overflow:visible;"/>
				</clipPath>
				<path class="st29" d="M-90.8,29.7l-5.5-7.5c-0.3-0.4-0.2-1.1,0.2-1.4l0,0c0.4-0.3,1.1-0.2,1.4,0.2l5.5,7.5
					c0.3,0.5,0.2,1.1-0.3,1.4l0,0C-89.9,30.2-90.5,30.1-90.8,29.7z M-68.9,20.8L-68.9,20.8c-0.5-0.3-1.1-0.2-1.4,0.2l-5.5,7.5
					c-0.3,0.5-0.2,1.1,0.3,1.4l0,0c0.4,0.3,1,0.2,1.4-0.2l5.5-7.5C-68.4,21.7-68.5,21.1-68.9,20.8z M-61.2,45.3l-7.9-2.5
					c-0.5-0.2-1.1,0.1-1.3,0.7l0,0c-0.1,0.5,0.2,1,0.7,1.2l7.9,2.6c0.5,0.2,1.1-0.1,1.2-0.6l0,0C-60.4,46.1-60.7,45.5-61.2,45.3z
					 M-82.5,61.8c0.5,0,1-0.4,1-1v-7.7c0-0.6-0.4-1-1-1s-1,0.4-1,1v7.7C-83.5,61.4-83.1,61.8-82.5,61.8L-82.5,61.8z M-94.6,43.5
					c-0.1-0.6-0.7-0.9-1.3-0.7l-7.9,2.6c-0.5,0.2-0.8,0.7-0.6,1.2l0,0c0.2,0.5,0.7,0.8,1.2,0.6l7.9-2.6
					C-94.8,44.5-94.5,44-94.6,43.5L-94.6,43.5z M-106.5,10.4V4.8c0-1.1,0.9-2,2-2h10c1.1,0,2,0.9,2,2v5.6c0,1.1-0.9,2-2,2h-10
					C-105.6,12.5-106.5,11.6-106.5,10.4z M-104.5,10.4C-104.5,10.5-104.5,10.5-104.5,10.4h10l0,0V4.8l0,0h-10l0,0V10.4z M-91.5,15.5
					c0-0.6-0.4-1-1-1h-14c-0.6,0-1,0.4-1,1s0.4,1,1,1h14C-91.9,16.5-91.5,16-91.5,15.5z M-87.5,66.1h10c1.1,0,2,0.9,2,2v5.7
					c0,1.1-0.9,2-2,2h-10c-1.1,0-2-0.9-2-2v-5.6C-89.5,67-88.6,66.1-87.5,66.1z M-77.5,68.1h-10l0,0v5.7l0,0h10l0,0V68.1L-77.5,68.1
					z M-75.5,77.8h-14c-0.6,0-1,0.4-1,1s0.4,1,1,1h14c0.6,0,1-0.4,1-1S-74.9,77.8-75.5,77.8z M-56.5,50.4v-5.6c0-1.1,0.9-2,2-2h10
					c1.1,0,2,0.9,2,2v5.6c0,1.1-0.9,2-2,2h-10C-55.6,52.5-56.5,51.6-56.5,50.4z M-54.5,50.4C-54.5,50.5-54.5,50.5-54.5,50.4h10l0,0
					v-5.6l0,0h-10l0,0V50.4z M-42.5,54.5h-14c-0.6,0-1,0.4-1,1s0.4,1,1,1h14c0.6,0,1-0.4,1-1S-41.9,54.5-42.5,54.5z M-122.5,51.8
					v-5.6c0-1.1,0.9-2,2-2h10c1.1,0,2,0.9,2,2v5.6c0,1.1-0.9,2-2,2h-10C-121.6,53.8-122.5,52.9-122.5,51.8z M-120.5,51.8
					L-120.5,51.8h10l0,0v-5.6l0,0h-10l0,0V51.8z M-108.5,55.8h-14c-0.6,0-1,0.4-1,1s0.4,1,1,1h14c0.6,0,1-0.4,1-1
					S-107.9,55.8-108.5,55.8z M-72.5,10.4V4.8c0-1.1,0.9-2,2-2h10c1.1,0,2,0.9,2,2v5.6c0,1.1-0.9,2-2,2h-10
					C-71.6,12.5-72.5,11.6-72.5,10.4z M-70.5,10.4C-70.5,10.5-70.5,10.5-70.5,10.4h10l0,0V4.8l0,0h-10l0,0V10.4z M-58.5,14.5h-14
					c-0.6,0-1,0.4-1,1s0.4,1,1,1h14c0.6,0,1-0.4,1-1S-57.9,14.5-58.5,14.5z M-89.5,35.4c0-1.1,0.9-2,2-2h10c1.1,0,2,0.9,2,2V41
					c0,1.1-0.9,2-2,2h-10c-1.1,0-2-0.9-2-2V35.4z M-87.5,41L-87.5,41h10l0,0v-5.6l0,0h-10l0,0V41z M-75.5,45h-14c-0.6,0-1,0.4-1,1
					s0.4,1,1,1h14c0.6,0,1-0.4,1-1S-74.9,45-75.5,45z"/>
			</g>
		</g>
	</g>
</g>
<g class="st1">
	<g class="st2">
		<g>
			<g>
				<defs>
					<rect id="SVGID_53_" x="-132.5" y="-9.2" width="100" height="100"/>
				</defs>
				<clipPath id="SVGID_54_">
					<use xlink:href="#SVGID_53_"  style="overflow:visible;"/>
				</clipPath>
				<g class="st30">
					<path d="M-86.3,54.3l-10.1,11l8.5-24.5h-11l12.8-32h14l-10,22.8l-1.2,2.8h3.1H-68l-5.1,5.5c0.6,0.3,1.1,0.7,1.6,1.2l8-8.7
						h-16.8l11.2-25.6h-18.4l-14.4,36h11.2l-10.8,31l16.5-18C-85,55.7-86,54.7-86.3,54.3z"/>
					<path d="M-60.7,60.6l-11-9.6c1-2.5,0.4-5.4-1.6-7.4c-1.4-1.4-3.1-2-4.9-2c-0.8,0-1.7,0.2-2.4,0.4l2.8,2.8l0.1,0.1l0,0
						c0.1,0.2,0.3,0.3,0.4,0.5l0,0c0.1,0.2,0.2,0.3,0.2,0.5l0,0c0.1,0.2,0.1,0.4,0.1,0.6l0,0c0,0.2,0,0.4,0,0.6
						c-0.1,0.7-0.3,1.3-0.8,1.8c-0.4,0.4-1,0.7-1.6,0.8l0,0c-0.2,0-0.3,0-0.5,0c-0.2,0-0.3,0-0.5,0c-0.1,0-0.2,0-0.3-0.1
						c-0.1,0-0.1,0-0.2-0.1c-0.1,0-0.2-0.1-0.3-0.1h-0.1c-0.1-0.1-0.2-0.1-0.4-0.2c-0.1-0.1-0.2-0.2-0.3-0.3l-2.8-2.8
						c-0.7,1.9-0.5,4.1,0.5,5.9l0,0l0,0c0.1,0.2,0.3,0.5,0.5,0.7c0.2,0.2,0.4,0.5,0.6,0.7c1.4,1.4,3.1,2,4.9,2
						c0.9,0,1.7-0.2,2.5-0.5l9.6,11c1.3,1.3,3.5,1.1,5-0.4S-59.4,61.9-60.7,60.6z"/>
				</g>
			</g>
		</g>
	</g>
</g>
<text transform="matrix(1 0 0 1 0.6557 121.2744)" style="font-family:'Arial-BoldMT'; font-size:5px;">Created by IQON</text>
<text transform="matrix(1 0 0 1 0.6557 126.2744)" style="font-family:'Arial-BoldMT'; font-size:5px;">from the Noun Project</text>
</svg>
